{"glyphs":{"0":{"ha":542,"x_min":0,"x_max":0,"o":"m 50 760 l 50 199 b 270 -19 50 66 136 -19 b 491 199 405 -19 491 66 l 491 760 b 270 978 491 893 405 978 b 50 760 136 978 50 893 z m 182 199 l 182 760 b 270 868 182 826 217 868 b 359 760 324 868 359 826 l 359 199 b 270 91 359 133 324 91 b 182 199 217 91 182 133 z "},"1":{"ha":294,"x_min":0,"x_max":0,"o":"m 170 -19 l 180 -19 b 241 42 215 -19 241 7 l 241 898 b 180 959 241 932 215 959 l 97 959 b 36 904 62 959 36 936 b 97 848 36 872 62 848 l 109 848 l 109 42 b 170 -19 109 7 136 -19 z "},"2":{"ha":529,"x_min":0,"x_max":0,"o":"m 179 199 b 488 760 179 403 488 489 b 268 978 488 893 402 978 b 47 760 134 978 47 893 l 47 693 b 108 632 47 658 74 632 l 118 632 b 179 693 153 632 179 658 l 179 760 b 268 868 179 826 214 868 b 356 760 322 868 356 826 b 47 199 356 556 47 470 l 47 61 b 108 0 47 26 74 0 l 427 0 b 488 55 462 0 488 24 b 427 110 488 87 462 110 l 179 110 z "},"3":{"ha":538,"x_min":0,"x_max":0,"o":"m 266 868 b 355 760 320 868 355 826 l 355 642 b 266 534 355 576 320 534 l 227 534 b 178 485 199 534 178 513 l 178 473 b 227 424 178 446 199 424 l 266 424 b 355 316 320 424 355 382 l 355 199 b 266 91 355 133 320 91 b 178 199 212 91 178 133 l 178 266 b 117 327 178 301 151 327 l 107 327 b 46 266 72 327 46 301 l 46 199 b 266 -19 46 66 132 -19 b 487 199 401 -19 487 66 l 487 316 b 404 479 487 395 457 448 b 487 642 457 510 487 563 l 487 760 b 266 978 487 893 401 978 b 46 760 132 978 46 893 l 46 693 b 107 632 46 658 72 632 l 117 632 b 178 693 151 632 178 658 l 178 760 b 266 868 178 826 212 868 z "},"4":{"ha":535,"x_min":0,"x_max":0,"o":"m 350 42 b 411 -19 350 7 376 -19 l 420 -19 b 482 42 455 -19 482 7 l 482 917 b 420 978 482 951 455 978 l 411 978 b 350 917 376 978 350 951 l 350 427 l 177 427 l 220 917 b 159 978 224 951 194 978 l 150 978 b 89 917 115 978 92 951 l 41 377 b 102 316 37 343 67 316 l 350 316 l 350 42 z "},"5":{"ha":535,"x_min":0,"x_max":0,"o":"m 269 520 b 358 412 323 520 358 478 l 358 199 b 269 91 358 133 323 91 b 180 199 215 91 180 133 l 180 266 b 119 327 180 301 154 327 l 110 327 b 49 266 75 327 49 301 l 49 199 b 269 -19 49 66 135 -19 b 490 199 403 -19 490 66 l 490 412 b 269 630 490 545 403 630 l 180 630 l 180 848 l 393 848 b 454 904 427 848 454 871 b 393 959 454 935 427 959 l 110 959 b 49 898 75 959 49 932 l 49 581 b 110 520 49 546 75 520 l 269 520 z "},"6":{"ha":540,"x_min":0,"x_max":0,"o":"m 270 -19 b 491 199 405 -19 491 66 l 491 340 b 282 558 491 473 405 558 b 182 538 244 558 211 551 l 182 760 b 270 868 182 826 217 868 b 359 760 324 868 359 826 l 359 693 b 420 632 359 658 386 632 l 430 632 b 491 693 465 632 491 658 l 491 760 b 270 978 491 893 405 978 b 50 760 136 978 50 893 l 50 199 b 270 -19 50 66 136 -19 z m 182 199 l 182 340 b 270 448 182 406 217 448 b 359 340 324 448 359 406 l 359 199 b 270 91 359 133 324 91 b 182 199 217 91 182 133 z "},"7":{"ha":536,"x_min":0,"x_max":0,"o":"m 69 904 b 131 848 69 872 96 848 l 358 848 l 234 42 b 291 -19 229 7 256 -19 l 301 -19 b 365 42 335 -19 361 7 l 497 898 b 440 959 502 932 474 959 l 131 959 b 69 904 96 959 69 936 z "},"8":{"ha":542,"x_min":0,"x_max":0,"o":"m 50 199 b 270 -19 50 66 136 -19 b 491 199 405 -19 491 66 l 491 316 b 408 479 491 395 461 448 b 491 642 461 510 491 563 l 491 760 b 270 978 491 893 405 978 b 50 760 136 978 50 893 l 50 642 b 133 479 50 563 80 510 b 50 316 80 448 50 395 z m 359 760 l 359 642 b 270 534 359 576 324 534 b 182 642 217 534 182 576 l 182 760 b 270 868 182 826 217 868 b 359 760 324 868 359 826 z m 182 199 l 182 316 b 270 424 182 382 217 424 b 359 316 324 424 359 382 l 359 199 b 270 91 359 133 324 91 b 182 199 217 91 182 133 z "},"9":{"ha":540,"x_min":0,"x_max":0,"o":"m 269 978 b 49 760 135 978 49 893 l 49 618 b 257 400 49 485 135 400 b 358 421 295 400 329 407 l 358 199 b 269 91 358 133 323 91 b 180 199 215 91 180 133 l 180 266 b 119 327 180 301 154 327 l 110 327 b 49 266 75 327 49 301 l 49 199 b 269 -19 49 66 135 -19 b 490 199 403 -19 490 66 l 490 760 b 269 978 490 893 403 978 z m 180 618 l 180 760 b 269 868 180 826 215 868 b 358 760 323 868 358 826 l 358 618 b 269 510 358 552 323 510 b 180 618 215 510 180 552 z "},"\u0000":{"ha":0,"x_min":0,"x_max":0,"o":""},"\n":{"ha":0,"x_min":0,"x_max":0,"o":""},"\r":{"ha":0,"x_min":0,"x_max":0,"o":""}," ":{"ha":292,"x_min":0,"x_max":0,"o":""},"!":{"ha":235,"x_min":0,"x_max":0,"o":"m 113 127 l 122 127 b 183 188 157 127 183 153 l 183 917 b 122 978 183 951 157 978 l 113 978 b 51 917 78 978 51 951 l 51 188 b 113 127 51 153 78 127 z m 51 42 b 113 -19 51 7 78 -19 l 122 -19 b 183 42 157 -19 183 7 b 122 103 183 77 157 103 l 113 103 b 51 42 78 103 51 77 z "},"\"":{"ha":333,"x_min":0,"x_max":0,"o":"m 88 925 l 76 872 b 82 862 74 868 77 862 b 158 986 98 862 158 941 b 97 1047 158 1021 132 1047 l 88 1047 b 26 986 53 1047 26 1021 b 88 925 26 951 53 925 z m 175 986 b 236 925 175 951 201 925 l 224 872 b 230 862 223 868 225 862 b 307 986 247 862 307 941 b 246 1047 307 1021 280 1047 l 236 1047 b 175 986 201 1047 175 1021 z "},"#":{"ha":664,"x_min":0,"x_max":0,"o":"m 457 -19 l 467 -19 b 528 42 501 -19 528 7 l 528 213 l 575 213 b 624 262 602 213 624 235 l 624 274 b 575 324 624 302 602 324 l 528 324 l 528 635 l 575 635 b 624 684 602 635 624 657 l 624 696 b 575 745 624 724 602 745 l 528 745 l 528 917 b 467 978 528 951 501 978 l 457 978 b 396 917 422 978 396 951 l 396 745 l 267 745 l 267 917 b 205 978 267 951 240 978 l 196 978 b 135 917 161 978 135 951 l 135 745 l 88 745 b 39 696 60 745 39 724 l 39 684 b 88 635 39 657 60 635 l 135 635 l 135 324 l 88 324 b 39 274 60 324 39 302 l 39 262 b 88 213 39 235 60 213 l 135 213 l 135 42 b 196 -19 135 7 161 -19 l 205 -19 b 267 42 240 -19 267 7 l 267 213 l 396 213 l 396 42 b 457 -19 396 7 422 -19 z m 267 324 l 267 635 l 396 635 l 396 324 z "},"$":{"ha":533,"x_min":0,"x_max":0,"o":"m 46 760 b 355 199 46 489 355 403 b 266 91 355 133 320 91 b 178 199 212 91 178 133 l 178 266 b 117 327 178 301 151 327 l 107 327 b 46 266 72 327 46 301 l 46 199 b 200 -12 46 89 105 12 l 200 -87 b 262 -149 200 -122 227 -149 l 271 -149 b 332 -87 306 -149 332 -122 l 332 -12 b 487 199 428 12 487 89 b 178 760 487 470 178 556 b 266 868 178 826 212 868 b 355 760 320 868 355 826 l 355 693 b 416 632 355 658 381 632 l 426 632 b 487 693 460 632 487 658 l 487 760 b 332 971 487 870 428 947 l 332 1046 b 271 1107 332 1081 306 1107 l 262 1107 b 200 1046 227 1107 200 1081 l 200 971 b 46 760 105 947 46 870 z "},"%":{"ha":929,"x_min":0,"x_max":0,"o":"m 32 634 b 216 440 32 510 99 440 b 401 634 334 440 401 510 l 401 691 b 216 886 401 815 334 886 b 32 691 99 886 32 815 z m 164 634 l 164 691 b 216 775 164 745 183 775 b 269 691 250 775 269 745 l 269 634 b 216 550 269 580 250 550 b 164 634 183 550 164 580 z m 562 917 l 233 54 b 282 -19 220 19 236 -19 l 292 -19 b 367 42 332 -19 354 7 l 696 905 b 647 978 709 939 693 978 l 637 978 b 562 917 598 978 575 951 z m 528 267 b 713 73 528 144 595 73 b 897 267 830 73 897 144 l 897 325 b 713 519 897 448 830 519 b 528 325 595 519 528 448 z m 660 267 l 660 325 b 713 409 660 379 679 409 b 765 325 746 409 765 379 l 765 267 b 713 183 765 213 746 183 b 660 267 679 183 660 213 z "},"&":{"ha":614,"x_min":0,"x_max":0,"o":"m 490 760 b 269 978 490 893 403 978 b 49 760 135 978 49 893 b 111 549 49 681 74 612 b 49 400 71 518 49 469 l 49 199 b 269 -19 49 66 135 -19 b 449 95 364 -19 422 23 b 454 50 452 80 454 65 b 365 -58 454 -16 419 -58 b 316 -107 337 -58 316 -79 l 316 -119 b 365 -168 316 -146 337 -168 b 585 50 499 -168 585 -83 b 180 760 585 355 180 489 b 269 868 180 826 215 868 b 358 760 323 868 358 826 l 358 693 b 419 632 358 658 384 632 l 428 632 b 490 693 463 632 490 658 l 490 760 z m 269 91 b 180 199 215 91 180 133 l 180 400 b 186 445 180 417 183 431 b 358 256 243 377 306 316 l 358 199 b 269 91 358 133 323 91 z "},"'":{"ha":185,"x_min":0,"x_max":0,"o":"m 88 925 l 76 872 b 82 862 74 868 77 862 b 158 986 98 862 158 941 b 97 1047 158 1021 132 1047 l 88 1047 b 26 986 53 1047 26 1021 b 88 925 26 951 53 925 z "},"(":{"ha":304,"x_min":0,"x_max":0,"o":"m 254 1025 l 202 1025 b 142 993 177 1025 158 1011 b 51 712 103 948 51 874 l 51 247 b 142 -35 51 85 103 11 b 202 -66 158 -53 177 -66 l 254 -66 b 278 -30 275 -66 285 -50 b 183 247 261 16 183 85 l 183 712 b 278 989 183 874 261 943 b 254 1025 285 1009 275 1025 z "},")":{"ha":304,"x_min":0,"x_max":0,"o":"m 101 1025 l 50 1025 b 26 989 28 1025 19 1009 b 121 712 43 943 121 874 l 121 247 b 26 -30 121 85 43 16 b 50 -66 19 -50 28 -66 l 101 -66 b 161 -35 127 -66 146 -53 b 252 247 201 11 252 85 l 252 712 b 161 993 252 874 201 948 b 101 1025 146 1011 127 1025 z "},"*":{"ha":236,"x_min":0,"x_max":0,"o":"m 117 817 l 119 817 b 137 835 130 817 137 824 l 137 860 l 155 842 b 179 842 161 835 172 835 l 182 845 b 182 869 189 851 189 862 l 164 887 l 189 887 b 206 904 198 887 206 894 l 206 907 b 189 924 206 917 198 924 l 164 924 l 182 942 b 182 966 189 949 189 960 l 179 968 b 155 968 172 975 161 975 l 137 950 l 137 977 b 119 993 137 986 130 993 l 117 993 b 99 977 106 993 99 986 l 99 950 l 81 968 b 57 968 75 975 64 975 l 55 966 b 55 942 47 960 47 949 l 72 924 l 47 924 b 31 907 38 924 31 917 l 31 904 b 47 887 31 894 38 887 l 72 887 l 55 869 b 55 845 47 862 47 851 l 57 842 b 81 842 64 835 75 835 l 99 860 l 99 835 b 117 817 99 824 106 817 z "},"+":{"ha":476,"x_min":0,"x_max":0,"o":"m 32 485 l 32 473 b 81 424 32 446 54 424 l 183 424 l 183 322 b 232 273 183 295 205 273 l 244 273 b 293 322 272 273 293 295 l 293 424 l 395 424 b 444 473 423 424 444 446 l 444 485 b 395 534 444 513 423 534 l 293 534 l 293 636 b 244 685 293 664 272 685 l 232 685 b 183 636 205 685 183 664 l 183 534 l 81 534 b 32 485 54 534 32 513 z "},",":{"ha":190,"x_min":0,"x_max":0,"o":"m 90 -19 l 78 -72 b 84 -83 77 -77 79 -83 b 161 42 101 -83 161 -4 b 100 103 161 77 135 103 l 90 103 b 29 42 56 103 29 77 b 90 -19 29 7 56 -19 z "},"-":{"ha":351,"x_min":0,"x_max":0,"o":"m 29 485 l 29 473 b 78 424 29 446 51 424 l 272 424 b 322 473 300 424 322 446 l 322 485 b 272 534 322 513 300 534 l 78 534 b 29 485 51 534 29 513 z "},".":{"ha":190,"x_min":0,"x_max":0,"o":"m 90 -19 l 100 -19 b 161 42 135 -19 161 7 b 100 103 161 77 135 103 l 90 103 b 29 42 56 103 29 77 b 90 -19 29 7 56 -19 z "},"/":{"ha":639,"x_min":0,"x_max":0,"o":"m 432 917 l 73 -109 b 123 -182 61 -144 76 -182 l 132 -182 b 208 -121 172 -182 196 -156 l 566 905 b 517 978 578 939 564 978 l 507 978 b 432 917 468 978 444 951 z "},":":{"ha":204,"x_min":0,"x_max":0,"o":"m 36 624 b 97 563 36 590 62 563 l 107 563 b 168 624 142 563 168 590 b 107 685 168 659 142 685 l 97 685 b 36 624 62 685 36 659 z m 97 273 l 107 273 b 168 334 142 273 168 300 b 107 395 168 369 142 395 l 97 395 b 36 334 62 395 36 369 b 97 273 36 300 62 273 z "},";":{"ha":207,"x_min":0,"x_max":0,"o":"m 99 563 l 108 563 b 169 624 143 563 169 590 b 108 685 169 659 143 685 l 99 685 b 38 624 64 685 38 659 b 99 563 38 590 64 563 z m 38 334 b 99 273 38 300 64 273 l 87 220 b 93 210 85 216 88 210 b 169 334 109 210 169 289 b 108 395 169 369 143 395 l 99 395 b 38 334 64 395 38 369 z "},"<":{"ha":364,"x_min":0,"x_max":0,"o":"m 70 544 b 33 495 48 533 33 513 l 33 464 b 70 415 33 446 48 425 l 265 319 b 326 368 302 301 326 320 l 326 380 b 289 429 326 398 315 417 l 175 479 l 289 530 b 326 579 315 542 326 561 l 326 591 b 265 640 326 639 302 658 l 70 544 z "},"=":{"ha":482,"x_min":0,"x_max":0,"o":"m 35 545 b 84 496 35 518 56 496 l 398 496 b 447 545 425 496 447 518 l 447 557 b 398 606 447 585 425 606 l 84 606 b 35 557 56 606 35 585 z m 35 413 l 35 401 b 84 352 35 374 56 352 l 398 352 b 447 401 425 352 447 374 l 447 413 b 398 463 447 441 425 463 l 84 463 b 35 413 56 463 35 441 z "},">":{"ha":364,"x_min":0,"x_max":0,"o":"m 293 415 b 330 464 316 425 330 446 l 330 495 b 293 544 330 513 316 533 l 99 640 b 38 591 61 658 38 639 l 38 579 b 75 530 38 561 48 542 l 188 479 l 75 429 b 38 380 48 417 38 398 l 38 368 b 99 319 38 320 61 301 l 293 415 z "},"?":{"ha":503,"x_min":0,"x_max":0,"o":"m 245 127 b 306 188 280 127 306 153 l 306 355 b 472 760 306 509 472 570 b 251 978 472 893 385 978 b 31 760 117 978 31 893 l 31 693 b 92 632 31 658 57 632 l 101 632 b 162 693 136 632 162 658 l 162 760 b 251 868 162 826 197 868 b 340 760 305 868 340 826 b 174 368 340 606 174 544 l 174 188 b 235 127 174 153 201 127 l 245 127 z m 174 42 b 235 -19 174 7 201 -19 l 245 -19 b 306 42 280 -19 306 7 b 245 103 306 77 280 103 l 235 103 b 174 42 201 103 174 77 z "},"@":{"ha":635,"x_min":0,"x_max":0,"o":"m 218 597 l 218 357 b 402 170 218 234 285 170 b 587 357 520 170 587 234 l 587 724 b 318 978 587 857 501 978 b 50 724 136 978 50 857 l 50 235 b 318 -19 50 102 136 -19 l 414 -19 b 463 30 442 -19 463 2 l 463 42 b 414 91 463 70 442 91 l 318 91 b 182 235 217 91 182 169 l 182 724 b 318 868 182 790 217 868 b 445 780 392 868 430 828 b 402 784 432 782 418 784 b 218 597 285 784 218 720 z m 350 357 l 350 597 b 402 673 350 651 369 673 b 455 597 436 673 455 651 l 455 357 b 402 280 455 303 436 280 b 350 357 369 280 350 303 z "},"A":{"ha":539,"x_min":0,"x_max":0,"o":"m 358 42 b 419 -19 358 7 384 -19 l 428 -19 b 490 42 463 -19 490 7 l 490 760 b 269 978 490 893 403 978 b 49 760 135 978 49 893 l 49 42 b 110 -19 49 7 75 -19 l 119 -19 b 180 42 154 -19 180 7 l 180 424 l 358 424 l 358 42 z m 180 534 l 180 760 b 269 868 180 826 215 868 b 358 760 323 868 358 826 l 358 534 z "},"B":{"ha":532,"x_min":0,"x_max":0,"o":"m 51 61 b 113 0 51 26 78 0 l 272 0 b 492 218 406 0 492 85 l 492 316 b 410 479 492 395 462 448 b 492 642 462 510 492 563 l 492 741 b 272 959 492 874 406 959 l 113 959 b 51 898 78 959 51 932 z m 183 534 l 183 848 l 272 848 b 361 741 326 848 361 806 l 361 642 b 272 534 361 576 326 534 z m 183 110 l 183 424 l 272 424 b 361 316 326 424 361 382 l 361 218 b 272 110 361 152 326 110 z "},"C":{"ha":514,"x_min":0,"x_max":0,"o":"m 424 327 l 415 327 b 354 266 380 327 354 301 l 354 199 b 265 91 354 133 319 91 b 176 199 211 91 176 133 l 176 760 b 265 868 176 826 211 868 b 354 760 319 868 354 826 l 354 693 b 415 632 354 658 380 632 l 424 632 b 485 693 459 632 485 658 l 485 760 b 265 978 485 893 399 978 b 44 760 131 978 44 893 l 44 199 b 265 -19 44 66 131 -19 b 485 199 399 -19 485 66 l 485 266 b 424 327 485 301 459 327 z "},"D":{"ha":535,"x_min":0,"x_max":0,"o":"m 111 0 l 270 0 b 491 218 405 0 491 85 l 491 741 b 270 959 491 874 405 959 l 111 959 b 50 898 76 959 50 932 l 50 61 b 111 0 50 26 76 0 z m 182 110 l 182 848 l 270 848 b 359 741 324 848 359 806 l 359 218 b 270 110 359 152 324 110 z "},"E":{"ha":446,"x_min":0,"x_max":0,"o":"m 51 61 b 113 0 51 26 78 0 l 371 0 b 432 55 406 0 432 24 b 371 110 432 87 406 110 l 183 110 l 183 424 l 335 424 b 397 479 370 424 397 448 b 335 534 397 510 370 534 l 183 534 l 183 848 l 371 848 b 432 904 406 848 432 872 b 371 959 432 936 406 959 l 113 959 b 51 898 78 959 51 932 z "},"F":{"ha":432,"x_min":0,"x_max":0,"o":"m 113 -19 l 122 -19 b 183 42 157 -19 183 7 l 183 424 l 335 424 b 397 479 370 424 397 448 b 335 534 397 510 370 534 l 183 534 l 183 848 l 371 848 b 432 904 406 848 432 872 b 371 959 432 936 406 959 l 113 959 b 51 898 78 959 51 932 l 51 42 b 113 -19 51 7 78 -19 z "},"G":{"ha":526,"x_min":0,"x_max":0,"o":"m 424 534 l 261 534 b 200 479 227 534 200 510 b 261 424 200 447 227 424 l 354 424 l 354 199 b 265 91 354 133 319 91 b 176 199 211 91 176 133 l 176 760 b 265 868 176 826 211 868 b 354 760 319 868 354 826 l 354 693 b 415 632 354 658 380 632 l 424 632 b 485 693 459 632 485 658 l 485 760 b 265 978 485 893 399 978 b 44 760 131 978 44 893 l 44 199 b 265 -19 44 66 131 -19 b 485 199 399 -19 485 66 l 485 473 b 424 534 485 508 459 534 z "},"H":{"ha":547,"x_min":0,"x_max":0,"o":"m 423 -19 l 433 -19 b 494 42 467 -19 494 7 l 494 917 b 433 978 494 951 467 978 l 423 978 b 362 917 388 978 362 951 l 362 534 l 185 534 l 185 917 b 123 978 185 951 158 978 l 114 978 b 53 917 79 978 53 951 l 53 42 b 114 -19 53 7 79 -19 l 123 -19 b 185 42 158 -19 185 7 l 185 424 l 362 424 l 362 42 b 423 -19 362 7 388 -19 z "},"I":{"ha":238,"x_min":0,"x_max":0,"o":"m 114 -19 l 123 -19 b 185 42 158 -19 185 7 l 185 917 b 123 978 185 951 158 978 l 114 978 b 53 917 79 978 53 951 l 53 42 b 114 -19 53 7 79 -19 z "},"J":{"ha":490,"x_min":0,"x_max":0,"o":"m 380 978 l 370 978 b 309 917 336 978 309 951 l 309 199 b 220 91 309 133 274 91 b 132 199 167 91 132 133 l 132 266 b 71 327 132 301 105 327 l 61 327 b 0 266 26 327 0 301 l 0 199 b 220 -19 0 66 86 -19 b 441 199 355 -19 441 66 l 441 917 b 380 978 441 951 415 978 z "},"K":{"ha":522,"x_min":0,"x_max":0,"o":"m 53 42 b 114 -19 53 7 79 -19 l 123 -19 b 185 42 158 -19 185 7 l 185 472 l 273 472 b 362 364 327 472 362 430 l 362 42 b 423 -19 362 7 388 -19 l 433 -19 b 494 42 467 -19 494 7 l 494 364 b 316 579 494 483 425 563 l 443 892 b 399 978 463 939 445 978 l 385 978 b 316 925 355 978 331 962 l 185 584 l 185 917 b 123 978 185 951 158 978 l 114 978 b 53 917 79 978 53 951 l 53 42 z "},"L":{"ha":419,"x_min":0,"x_max":0,"o":"m 122 978 l 113 978 b 51 917 78 978 51 951 l 51 61 b 113 0 51 26 78 0 l 371 0 b 432 55 406 0 432 23 b 371 110 432 86 406 110 l 183 110 l 183 917 b 122 978 183 951 157 978 z "},"M":{"ha":643,"x_min":0,"x_max":0,"o":"m 53 42 b 114 -19 53 7 79 -19 l 123 -19 b 185 42 158 -19 185 7 l 185 639 l 249 485 b 316 424 262 453 282 424 l 326 424 b 393 485 361 424 380 453 l 458 639 l 458 42 b 519 -19 458 7 484 -19 l 529 -19 b 590 42 563 -19 590 7 l 590 917 b 529 978 590 951 563 978 l 513 978 b 443 917 478 978 458 951 l 321 627 l 199 917 b 129 978 185 951 164 978 l 114 978 b 53 917 79 978 53 951 z "},"N":{"ha":547,"x_min":0,"x_max":0,"o":"m 423 -19 l 433 -19 b 494 42 467 -19 494 7 l 494 917 b 433 978 494 951 467 978 l 423 978 b 362 917 388 978 362 951 l 362 726 l 205 929 b 123 978 179 962 157 978 l 114 978 b 53 917 79 978 53 951 l 53 42 b 114 -19 53 7 79 -19 l 123 -19 b 185 42 158 -19 185 7 l 185 751 l 362 526 l 362 42 b 423 -19 362 7 388 -19 z "},"O":{"ha":531,"x_min":0,"x_max":0,"o":"m 44 760 l 44 199 b 265 -19 44 66 131 -19 b 485 199 399 -19 485 66 l 485 760 b 265 978 485 893 399 978 b 44 760 131 978 44 893 z m 176 199 l 176 760 b 265 868 176 826 211 868 b 354 760 319 868 354 826 l 354 199 b 265 91 354 133 319 91 b 176 199 211 91 176 133 z "},"P":{"ha":503,"x_min":0,"x_max":0,"o":"m 113 -19 l 122 -19 b 183 42 157 -19 183 7 l 183 424 l 272 424 b 492 642 406 424 492 509 l 492 741 b 272 959 492 874 406 959 l 113 959 b 51 898 78 959 51 932 l 51 42 b 113 -19 51 7 78 -19 z m 183 534 l 183 848 l 272 848 b 361 741 326 848 361 806 l 361 642 b 272 534 361 576 326 534 z "},"Q":{"ha":531,"x_min":0,"x_max":0,"o":"m 44 760 l 44 199 b 265 -19 44 66 131 -19 l 273 -19 l 332 -78 b 415 -83 357 -103 391 -105 b 410 0 436 -60 435 -25 l 394 16 b 485 199 452 52 485 116 l 485 760 b 265 978 485 893 399 978 b 44 760 131 978 44 893 z m 176 199 l 176 760 b 265 868 176 826 211 868 b 354 760 319 868 354 826 l 354 199 b 265 91 354 133 319 91 b 176 199 211 91 176 133 z "},"R":{"ha":536,"x_min":0,"x_max":0,"o":"m 51 42 b 113 -19 51 7 78 -19 l 122 -19 b 183 42 157 -19 183 7 l 183 424 l 272 424 b 361 316 326 424 361 382 l 361 42 b 422 -19 361 7 387 -19 l 431 -19 b 492 42 466 -19 492 7 l 492 316 b 410 479 492 395 462 448 b 492 642 462 510 492 563 l 492 741 b 272 959 492 874 406 959 l 113 959 b 51 898 78 959 51 932 l 51 42 z m 183 534 l 183 848 l 272 848 b 361 741 326 848 361 806 l 361 642 b 272 534 361 576 326 534 z "},"S":{"ha":503,"x_min":0,"x_max":0,"o":"m 31 760 b 340 199 31 489 340 403 b 251 91 340 133 305 91 b 162 199 197 91 162 133 l 162 266 b 101 327 162 301 136 327 l 92 327 b 31 266 57 327 31 301 l 31 199 b 251 -19 31 66 117 -19 b 472 199 385 -19 472 66 b 162 760 472 470 162 556 b 251 868 162 826 197 868 b 340 760 305 868 340 826 l 340 693 b 401 632 340 658 366 632 l 410 632 b 472 693 445 632 472 658 l 472 760 b 251 978 472 893 385 978 b 31 760 117 978 31 893 z "},"T":{"ha":483,"x_min":0,"x_max":0,"o":"m 237 -19 l 246 -19 b 307 42 281 -19 307 7 l 307 848 l 435 848 b 497 904 470 848 497 872 b 435 959 497 936 470 959 l 47 959 b -14 904 12 959 -14 936 b 47 848 -14 872 12 848 l 175 848 l 175 42 b 237 -19 175 7 202 -19 z "},"U":{"ha":539,"x_min":0,"x_max":0,"o":"m 490 917 b 428 978 490 951 463 978 l 419 978 b 358 917 384 978 358 951 l 358 199 b 269 91 358 133 323 91 b 180 199 215 91 180 133 l 180 917 b 119 978 180 951 154 978 l 110 978 b 49 917 75 978 49 951 l 49 199 b 269 -19 49 66 135 -19 b 490 199 403 -19 490 66 l 490 917 z "},"V":{"ha":543,"x_min":0,"x_max":0,"o":"m 255 -19 l 288 -19 b 354 42 323 -19 347 7 l 536 917 b 478 978 544 951 516 978 l 468 978 b 402 917 433 978 409 951 l 272 290 l 141 917 b 75 978 134 951 110 978 l 65 978 b 7 917 27 978 0 951 l 189 42 b 255 -19 196 7 220 -19 z "},"W":{"ha":665,"x_min":0,"x_max":0,"o":"m 160 917 b 99 978 157 951 133 978 l 89 978 b 28 917 54 978 26 951 l 100 42 b 161 -19 102 7 126 -19 l 177 -19 b 246 42 211 -19 239 7 l 332 431 l 419 42 b 488 -19 426 7 453 -19 l 504 -19 b 565 42 538 -19 562 7 l 637 917 b 576 978 639 951 610 978 l 566 978 b 505 917 531 978 507 951 l 464 428 l 404 701 b 337 762 397 733 372 762 l 327 762 b 260 701 293 762 268 733 l 200 428 l 160 917 z "},"X":{"ha":544,"x_min":0,"x_max":0,"o":"m 275 665 l 170 917 b 94 978 155 951 134 978 l 85 978 b 35 905 38 978 21 939 l 195 524 l 11 54 b 61 -19 -2 19 14 -19 l 70 -19 b 146 42 110 -19 132 7 l 268 351 l 397 42 b 473 -19 412 7 433 -19 l 482 -19 b 532 54 529 -19 546 19 l 347 494 l 508 905 b 458 978 521 939 505 978 l 449 978 b 373 917 409 978 387 951 l 275 665 z "},"Y":{"ha":503,"x_min":0,"x_max":0,"o":"m 185 42 b 247 -19 185 7 212 -19 l 256 -19 b 317 42 291 -19 317 7 l 317 424 l 507 917 b 454 978 520 951 489 978 l 444 978 b 372 917 400 978 386 951 l 251 602 l 130 917 b 58 978 117 951 103 978 l 49 978 b -4 917 14 978 -17 951 l 185 424 z "},"Ÿ":{"ha":503,"x_min":0,"x_max":0,"o":"m 185 42 b 247 -19 185 7 212 -19 l 256 -19 b 317 42 291 -19 317 7 l 317 424 l 507 917 b 454 978 520 951 489 978 l 444 978 b 372 917 400 978 386 951 l 251 602 l 130 917 b 58 978 117 951 103 978 l 49 978 b -4 917 14 978 -17 951 l 185 424 z "},"Z":{"ha":457,"x_min":0,"x_max":0,"o":"m 20 904 b 81 848 20 872 46 848 l 291 848 l 11 73 b 61 0 -2 38 14 0 l 387 0 b 448 55 421 0 448 24 b 387 110 448 87 421 110 l 164 110 l 443 886 b 394 959 456 920 440 959 l 81 959 b 20 904 46 959 20 936 z "},"[":{"ha":408,"x_min":0,"x_max":0,"o":"m 289 1050 l 114 1050 b 53 989 79 1050 53 1023 l 53 -30 b 114 -91 53 -65 79 -91 l 289 -91 b 338 -42 316 -91 338 -70 l 338 -30 b 289 19 338 -2 316 19 l 185 19 l 185 939 l 289 939 b 338 989 316 939 338 961 l 338 1001 b 289 1050 338 1028 316 1050 z "},"\\":{"ha":639,"x_min":0,"x_max":0,"o":"m 566 -108 l 208 917 b 132 978 196 951 172 978 l 123 978 b 73 905 76 978 61 939 l 432 -120 b 507 -181 444 -155 468 -181 l 517 -181 b 566 -108 564 -181 578 -143 z "},"]":{"ha":408,"x_min":0,"x_max":0,"o":"m 294 1050 l 119 1050 b 69 1001 91 1050 69 1028 l 69 989 b 119 939 69 961 91 939 l 223 939 l 223 19 l 119 19 b 69 -30 91 19 69 -2 l 69 -42 b 119 -91 69 -70 91 -91 l 294 -91 b 355 -30 328 -91 355 -65 l 355 989 b 294 1050 355 1023 328 1050 z "},"^":{"ha":314,"x_min":0,"x_max":0,"o":"m 205 1007 b 168 1034 195 1022 181 1034 l 145 1034 b 108 1007 131 1034 117 1022 l 35 884 b 73 839 19 858 37 839 l 82 839 b 119 866 95 839 109 846 l 156 951 l 194 866 b 231 839 204 846 218 839 l 240 839 b 278 884 276 839 294 858 l 205 1007 z "},"_":{"ha":494,"x_min":0,"x_max":0,"o":"m 53 -86 l 53 -98 b 102 -147 53 -126 74 -147 l 392 -147 b 441 -98 419 -147 441 -126 l 441 -86 b 392 -37 441 -59 419 -37 l 102 -37 b 53 -86 74 -37 53 -59 z "},"`":{"ha":185,"x_min":0,"x_max":0,"o":"m 88 925 l 76 872 b 82 862 74 868 77 862 b 158 986 98 862 158 941 b 97 1047 158 1021 132 1047 l 88 1047 b 26 986 53 1047 26 1021 b 88 925 26 951 53 925 z "},"a":{"ha":539,"x_min":0,"x_max":0,"o":"m 358 42 b 419 -19 358 7 384 -19 l 428 -19 b 490 42 463 -19 490 7 l 490 760 b 269 978 490 893 403 978 b 49 760 135 978 49 893 l 49 42 b 110 -19 49 7 75 -19 l 119 -19 b 180 42 154 -19 180 7 l 180 424 l 358 424 l 358 42 z m 180 534 l 180 760 b 269 868 180 826 215 868 b 358 760 323 868 358 826 l 358 534 z "},"b":{"ha":532,"x_min":0,"x_max":0,"o":"m 51 61 b 113 0 51 26 78 0 l 272 0 b 492 218 406 0 492 85 l 492 316 b 410 479 492 395 462 448 b 492 642 462 510 492 563 l 492 741 b 272 959 492 874 406 959 l 113 959 b 51 898 78 959 51 932 z m 183 534 l 183 848 l 272 848 b 361 741 326 848 361 806 l 361 642 b 272 534 361 576 326 534 z m 183 110 l 183 424 l 272 424 b 361 316 326 424 361 382 l 361 218 b 272 110 361 152 326 110 z "},"c":{"ha":514,"x_min":0,"x_max":0,"o":"m 424 327 l 415 327 b 354 266 380 327 354 301 l 354 199 b 265 91 354 133 319 91 b 176 199 211 91 176 133 l 176 760 b 265 868 176 826 211 868 b 354 760 319 868 354 826 l 354 693 b 415 632 354 658 380 632 l 424 632 b 485 693 459 632 485 658 l 485 760 b 265 978 485 893 399 978 b 44 760 131 978 44 893 l 44 199 b 265 -19 44 66 131 -19 b 485 199 399 -19 485 66 l 485 266 b 424 327 485 301 459 327 z "},"d":{"ha":535,"x_min":0,"x_max":0,"o":"m 111 0 l 270 0 b 491 218 405 0 491 85 l 491 741 b 270 959 491 874 405 959 l 111 959 b 50 898 76 959 50 932 l 50 61 b 111 0 50 26 76 0 z m 182 110 l 182 848 l 270 848 b 359 741 324 848 359 806 l 359 218 b 270 110 359 152 324 110 z "},"e":{"ha":446,"x_min":0,"x_max":0,"o":"m 51 61 b 113 0 51 26 78 0 l 371 0 b 432 55 406 0 432 24 b 371 110 432 87 406 110 l 183 110 l 183 424 l 335 424 b 397 479 370 424 397 448 b 335 534 397 510 370 534 l 183 534 l 183 848 l 371 848 b 432 904 406 848 432 872 b 371 959 432 936 406 959 l 113 959 b 51 898 78 959 51 932 z "},"f":{"ha":432,"x_min":0,"x_max":0,"o":"m 113 -19 l 122 -19 b 183 42 157 -19 183 7 l 183 424 l 335 424 b 397 479 370 424 397 448 b 335 534 397 510 370 534 l 183 534 l 183 848 l 371 848 b 432 904 406 848 432 872 b 371 959 432 936 406 959 l 113 959 b 51 898 78 959 51 932 l 51 42 b 113 -19 51 7 78 -19 z "},"g":{"ha":526,"x_min":0,"x_max":0,"o":"m 424 534 l 261 534 b 200 479 227 534 200 510 b 261 424 200 447 227 424 l 354 424 l 354 199 b 265 91 354 133 319 91 b 176 199 211 91 176 133 l 176 760 b 265 868 176 826 211 868 b 354 760 319 868 354 826 l 354 693 b 415 632 354 658 380 632 l 424 632 b 485 693 459 632 485 658 l 485 760 b 265 978 485 893 399 978 b 44 760 131 978 44 893 l 44 199 b 265 -19 44 66 131 -19 b 485 199 399 -19 485 66 l 485 473 b 424 534 485 508 459 534 z "},"h":{"ha":547,"x_min":0,"x_max":0,"o":"m 423 -19 l 433 -19 b 494 42 467 -19 494 7 l 494 917 b 433 978 494 951 467 978 l 423 978 b 362 917 388 978 362 951 l 362 534 l 185 534 l 185 917 b 123 978 185 951 158 978 l 114 978 b 53 917 79 978 53 951 l 53 42 b 114 -19 53 7 79 -19 l 123 -19 b 185 42 158 -19 185 7 l 185 424 l 362 424 l 362 42 b 423 -19 362 7 388 -19 z "},"i":{"ha":238,"x_min":0,"x_max":0,"o":"m 114 -19 l 123 -19 b 185 42 158 -19 185 7 l 185 917 b 123 978 185 951 158 978 l 114 978 b 53 917 79 978 53 951 l 53 42 b 114 -19 53 7 79 -19 z "},"j":{"ha":490,"x_min":0,"x_max":0,"o":"m 380 978 l 370 978 b 309 917 336 978 309 951 l 309 199 b 220 91 309 133 274 91 b 132 199 167 91 132 133 l 132 266 b 71 327 132 301 105 327 l 61 327 b 0 266 26 327 0 301 l 0 199 b 220 -19 0 66 86 -19 b 441 199 355 -19 441 66 l 441 917 b 380 978 441 951 415 978 z "},"k":{"ha":522,"x_min":0,"x_max":0,"o":"m 53 42 b 114 -19 53 7 79 -19 l 123 -19 b 185 42 158 -19 185 7 l 185 472 l 273 472 b 362 364 327 472 362 430 l 362 42 b 423 -19 362 7 388 -19 l 433 -19 b 494 42 467 -19 494 7 l 494 364 b 316 579 494 483 425 563 l 443 892 b 399 978 463 939 445 978 l 385 978 b 316 925 355 978 331 962 l 185 584 l 185 917 b 123 978 185 951 158 978 l 114 978 b 53 917 79 978 53 951 l 53 42 z "},"l":{"ha":419,"x_min":0,"x_max":0,"o":"m 122 978 l 113 978 b 51 917 78 978 51 951 l 51 61 b 113 0 51 26 78 0 l 371 0 b 432 55 406 0 432 23 b 371 110 432 86 406 110 l 183 110 l 183 917 b 122 978 183 951 157 978 z "},"m":{"ha":643,"x_min":0,"x_max":0,"o":"m 53 42 b 114 -19 53 7 79 -19 l 123 -19 b 185 42 158 -19 185 7 l 185 639 l 249 485 b 316 424 262 453 282 424 l 326 424 b 393 485 361 424 380 453 l 458 639 l 458 42 b 519 -19 458 7 484 -19 l 529 -19 b 590 42 563 -19 590 7 l 590 917 b 529 978 590 951 563 978 l 513 978 b 443 917 478 978 458 951 l 321 627 l 199 917 b 129 978 185 951 164 978 l 114 978 b 53 917 79 978 53 951 z "},"n":{"ha":547,"x_min":0,"x_max":0,"o":"m 423 -19 l 433 -19 b 494 42 467 -19 494 7 l 494 917 b 433 978 494 951 467 978 l 423 978 b 362 917 388 978 362 951 l 362 726 l 205 929 b 123 978 179 962 157 978 l 114 978 b 53 917 79 978 53 951 l 53 42 b 114 -19 53 7 79 -19 l 123 -19 b 185 42 158 -19 185 7 l 185 751 l 362 526 l 362 42 b 423 -19 362 7 388 -19 z "},"o":{"ha":531,"x_min":0,"x_max":0,"o":"m 44 760 l 44 199 b 265 -19 44 66 131 -19 b 485 199 399 -19 485 66 l 485 760 b 265 978 485 893 399 978 b 44 760 131 978 44 893 z m 176 199 l 176 760 b 265 868 176 826 211 868 b 354 760 319 868 354 826 l 354 199 b 265 91 354 133 319 91 b 176 199 211 91 176 133 z "},"p":{"ha":503,"x_min":0,"x_max":0,"o":"m 113 -19 l 122 -19 b 183 42 157 -19 183 7 l 183 424 l 272 424 b 492 642 406 424 492 509 l 492 741 b 272 959 492 874 406 959 l 113 959 b 51 898 78 959 51 932 l 51 42 b 113 -19 51 7 78 -19 z m 183 534 l 183 848 l 272 848 b 361 741 326 848 361 806 l 361 642 b 272 534 361 576 326 534 z "},"q":{"ha":531,"x_min":0,"x_max":0,"o":"m 44 760 l 44 199 b 265 -19 44 66 131 -19 l 273 -19 l 332 -78 b 415 -83 357 -103 391 -105 b 410 0 436 -60 435 -25 l 394 16 b 485 199 452 52 485 116 l 485 760 b 265 978 485 893 399 978 b 44 760 131 978 44 893 z m 176 199 l 176 760 b 265 868 176 826 211 868 b 354 760 319 868 354 826 l 354 199 b 265 91 354 133 319 91 b 176 199 211 91 176 133 z "},"r":{"ha":536,"x_min":0,"x_max":0,"o":"m 51 42 b 113 -19 51 7 78 -19 l 122 -19 b 183 42 157 -19 183 7 l 183 424 l 272 424 b 361 316 326 424 361 382 l 361 42 b 422 -19 361 7 387 -19 l 431 -19 b 492 42 466 -19 492 7 l 492 316 b 410 479 492 395 462 448 b 492 642 462 510 492 563 l 492 741 b 272 959 492 874 406 959 l 113 959 b 51 898 78 959 51 932 l 51 42 z m 183 534 l 183 848 l 272 848 b 361 741 326 848 361 806 l 361 642 b 272 534 361 576 326 534 z "},"s":{"ha":503,"x_min":0,"x_max":0,"o":"m 31 760 b 340 199 31 489 340 403 b 251 91 340 133 305 91 b 162 199 197 91 162 133 l 162 266 b 101 327 162 301 136 327 l 92 327 b 31 266 57 327 31 301 l 31 199 b 251 -19 31 66 117 -19 b 472 199 385 -19 472 66 b 162 760 472 470 162 556 b 251 868 162 826 197 868 b 340 760 305 868 340 826 l 340 693 b 401 632 340 658 366 632 l 410 632 b 472 693 445 632 472 658 l 472 760 b 251 978 472 893 385 978 b 31 760 117 978 31 893 z "},"t":{"ha":483,"x_min":0,"x_max":0,"o":"m 237 -19 l 246 -19 b 307 42 281 -19 307 7 l 307 848 l 435 848 b 497 904 470 848 497 872 b 435 959 497 936 470 959 l 47 959 b -14 904 12 959 -14 936 b 47 848 -14 872 12 848 l 175 848 l 175 42 b 237 -19 175 7 202 -19 z "},"u":{"ha":539,"x_min":0,"x_max":0,"o":"m 490 917 b 428 978 490 951 463 978 l 419 978 b 358 917 384 978 358 951 l 358 199 b 269 91 358 133 323 91 b 180 199 215 91 180 133 l 180 917 b 119 978 180 951 154 978 l 110 978 b 49 917 75 978 49 951 l 49 199 b 269 -19 49 66 135 -19 b 490 199 403 -19 490 66 l 490 917 z "},"v":{"ha":543,"x_min":0,"x_max":0,"o":"m 255 -19 l 288 -19 b 354 42 323 -19 347 7 l 536 917 b 478 978 544 951 516 978 l 468 978 b 402 917 433 978 409 951 l 272 290 l 141 917 b 75 978 134 951 110 978 l 65 978 b 7 917 27 978 0 951 l 189 42 b 255 -19 196 7 220 -19 z "},"w":{"ha":665,"x_min":0,"x_max":0,"o":"m 160 917 b 99 978 157 951 133 978 l 89 978 b 28 917 54 978 26 951 l 100 42 b 161 -19 102 7 126 -19 l 177 -19 b 246 42 211 -19 239 7 l 332 431 l 419 42 b 488 -19 426 7 453 -19 l 504 -19 b 565 42 538 -19 562 7 l 637 917 b 576 978 639 951 610 978 l 566 978 b 505 917 531 978 507 951 l 464 428 l 404 701 b 337 762 397 733 372 762 l 327 762 b 260 701 293 762 268 733 l 200 428 l 160 917 z "},"x":{"ha":544,"x_min":0,"x_max":0,"o":"m 275 665 l 170 917 b 94 978 155 951 134 978 l 85 978 b 35 905 38 978 21 939 l 195 524 l 11 54 b 61 -19 -2 19 14 -19 l 70 -19 b 146 42 110 -19 132 7 l 268 351 l 397 42 b 473 -19 412 7 433 -19 l 482 -19 b 532 54 529 -19 546 19 l 347 494 l 508 905 b 458 978 521 939 505 978 l 449 978 b 373 917 409 978 387 951 l 275 665 z "},"y":{"ha":503,"x_min":0,"x_max":0,"o":"m 185 42 b 247 -19 185 7 212 -19 l 256 -19 b 317 42 291 -19 317 7 l 317 424 l 507 917 b 454 978 520 951 489 978 l 444 978 b 372 917 400 978 386 951 l 251 602 l 130 917 b 58 978 117 951 103 978 l 49 978 b -4 917 14 978 -17 951 l 185 424 z "},"ÿ":{"ha":503,"x_min":0,"x_max":0,"o":"m 185 42 b 247 -19 185 7 212 -19 l 256 -19 b 317 42 291 -19 317 7 l 317 424 l 507 917 b 454 978 520 951 489 978 l 444 978 b 372 917 400 978 386 951 l 251 602 l 130 917 b 58 978 117 951 103 978 l 49 978 b -4 917 14 978 -17 951 l 185 424 z "},"z":{"ha":457,"x_min":0,"x_max":0,"o":"m 20 904 b 81 848 20 872 46 848 l 291 848 l 11 73 b 61 0 -2 38 14 0 l 387 0 b 448 55 421 0 448 24 b 387 110 448 87 421 110 l 164 110 l 443 886 b 394 959 456 920 440 959 l 81 959 b 20 904 46 959 20 936 z "},"{":{"ha":474,"x_min":0,"x_max":0,"o":"m 355 939 b 404 989 382 939 404 961 l 404 1001 b 355 1050 404 1028 382 1050 b 134 784 215 1050 134 968 l 134 636 b 76 534 134 576 116 534 b 26 485 48 534 26 513 l 26 473 b 76 424 26 446 48 424 b 134 322 116 424 134 382 l 134 175 b 355 -91 134 -10 215 -91 b 404 -42 382 -91 404 -70 l 404 -30 b 355 19 404 -2 382 19 b 266 175 298 19 266 61 b 194 479 266 268 280 424 b 266 784 280 534 266 690 b 355 939 266 898 298 939 z "},"|":{"ha":238,"x_min":0,"x_max":0,"o":"m 114 -182 l 123 -182 b 185 -121 158 -182 185 -156 l 185 917 b 123 978 185 951 158 978 l 114 978 b 53 917 79 978 53 951 l 53 -121 b 114 -182 53 -156 79 -182 z "},"}":{"ha":474,"x_min":0,"x_max":0,"o":"m 119 939 b 207 784 175 939 207 898 b 279 479 207 690 193 534 b 207 175 193 424 207 268 b 119 19 207 61 175 19 b 69 -30 91 19 69 -2 l 69 -42 b 119 -91 69 -70 91 -91 b 339 175 259 -91 339 -10 l 339 322 b 398 424 339 382 357 424 b 447 473 425 424 447 446 l 447 485 b 398 534 447 513 425 534 b 339 636 357 534 339 576 l 339 784 b 119 1050 339 968 259 1050 b 69 1001 91 1050 69 1028 l 69 989 b 119 939 69 961 91 939 z "}," ":{"ha":292,"x_min":0,"x_max":0,"o":""},"¢":{"ha":538,"x_min":0,"x_max":0,"o":"m 430 327 l 420 327 b 359 266 386 327 359 301 l 359 199 b 270 91 359 133 324 91 b 182 199 217 91 182 133 l 182 760 b 270 868 182 826 217 868 b 359 760 324 868 359 826 l 359 693 b 420 632 359 658 386 632 l 430 632 b 491 693 465 632 491 658 l 491 760 b 336 971 491 870 432 947 l 336 1046 b 275 1107 336 1081 310 1107 l 266 1107 b 205 1046 231 1107 205 1081 l 205 971 b 50 760 109 947 50 870 l 50 199 b 205 -12 50 89 109 12 l 205 -87 b 266 -149 205 -122 231 -149 l 275 -149 b 336 -87 310 -149 336 -122 l 336 -12 b 491 199 432 12 491 89 l 491 266 b 430 327 491 301 465 327 z "},"¥":{"ha":592,"x_min":0,"x_max":0,"o":"m 291 -19 l 301 -19 b 362 42 335 -19 362 7 l 362 297 l 485 297 b 534 346 513 297 534 319 l 534 358 b 485 407 534 386 513 407 l 362 407 l 362 424 l 374 455 l 485 455 b 534 504 513 455 534 477 l 534 516 b 485 566 534 544 513 566 l 416 566 l 551 917 b 498 978 564 951 533 978 l 489 978 b 417 917 444 978 430 951 l 296 602 l 175 917 b 103 978 162 951 147 978 l 93 978 b 41 917 59 978 27 951 l 176 566 l 106 566 b 57 516 79 566 57 544 l 57 504 b 106 455 57 477 79 455 l 218 455 l 230 424 l 230 407 l 106 407 b 57 358 79 407 57 386 l 57 346 b 106 297 57 319 79 297 l 230 297 l 230 42 b 291 -19 230 7 256 -19 z "},"­":{"ha":0,"x_min":0,"x_max":0,"o":""},"À":{"ha":539,"x_min":0,"x_max":0,"o":"m 358 42 b 419 -19 358 7 384 -19 l 428 -19 b 490 42 463 -19 490 7 l 490 760 b 269 978 490 893 403 978 b 49 760 135 978 49 893 l 49 42 b 110 -19 49 7 75 -19 l 119 -19 b 180 42 154 -19 180 7 l 180 424 l 358 424 l 358 42 z m 203 1183 l 195 1173 b 196 1104 177 1153 173 1120 l 266 1051 b 335 1052 287 1034 315 1032 l 343 1060 b 342 1130 363 1080 364 1113 l 273 1184 b 203 1183 251 1201 222 1204 z m 180 534 l 180 760 b 269 868 180 826 215 868 b 358 760 323 868 358 826 l 358 534 z "},"Á":{"ha":539,"x_min":0,"x_max":0,"o":"m 358 42 b 419 -19 358 7 384 -19 l 428 -19 b 490 42 463 -19 490 7 l 490 760 b 269 978 490 893 403 978 b 49 760 135 978 49 893 l 49 42 b 110 -19 49 7 75 -19 l 119 -19 b 180 42 154 -19 180 7 l 180 424 l 358 424 z m 196 1130 b 195 1060 174 1113 176 1080 l 203 1052 b 273 1051 224 1032 251 1034 l 342 1104 b 343 1173 365 1120 361 1153 l 335 1183 b 266 1184 316 1204 287 1201 l 196 1130 z m 180 534 l 180 760 b 269 868 180 826 215 868 b 358 760 323 868 358 826 l 358 534 z "},"Â":{"ha":539,"x_min":0,"x_max":0,"o":"m 358 42 b 419 -19 358 7 384 -19 l 428 -19 b 490 42 463 -19 490 7 l 490 760 b 269 978 490 893 403 978 b 49 760 135 978 49 893 l 49 42 b 110 -19 49 7 75 -19 l 119 -19 b 180 42 154 -19 180 7 l 180 424 l 358 424 z m 162 1060 l 171 1052 b 240 1051 191 1032 219 1034 l 269 1072 l 297 1051 b 366 1052 318 1034 346 1032 l 375 1060 b 373 1130 394 1080 395 1113 l 294 1190 b 268 1197 286 1196 277 1197 b 243 1190 260 1197 251 1196 l 164 1130 b 162 1060 142 1113 143 1080 z m 180 534 l 180 760 b 269 868 180 826 215 868 b 358 760 323 868 358 826 l 358 534 z "},"Ã":{"ha":539,"x_min":0,"x_max":0,"o":"m 358 42 b 419 -19 358 7 384 -19 l 428 -19 b 490 42 463 -19 490 7 l 490 760 b 269 978 490 893 403 978 b 49 760 135 978 49 893 l 49 42 b 110 -19 49 7 75 -19 l 119 -19 b 180 42 154 -19 180 7 l 180 424 l 358 424 z m 215 1197 b 118 1096 167 1197 118 1119 b 132 1060 118 1083 123 1070 l 141 1052 b 174 1038 150 1043 162 1038 b 238 1071 198 1038 214 1071 b 323 1038 267 1071 295 1038 b 420 1138 371 1038 420 1116 b 406 1174 420 1152 415 1165 l 397 1183 b 364 1197 389 1191 376 1197 b 300 1162 347 1197 317 1162 b 215 1197 274 1162 246 1197 z m 180 534 l 180 760 b 269 868 180 826 215 868 b 358 760 323 868 358 826 l 358 534 z "},"Ä":{"ha":539,"x_min":0,"x_max":0,"o":"m 358 42 b 419 -19 358 7 384 -19 l 428 -19 b 490 42 463 -19 490 7 l 490 760 b 269 978 490 893 403 978 b 49 760 135 978 49 893 l 49 42 b 110 -19 49 7 75 -19 l 119 -19 b 180 42 154 -19 180 7 l 180 424 l 358 424 z m 141 1099 b 202 1038 141 1064 167 1038 b 263 1099 237 1038 263 1064 b 202 1160 263 1134 237 1160 b 141 1099 167 1160 141 1134 z m 180 534 l 180 760 b 269 868 180 826 215 868 b 358 760 323 868 358 826 l 358 534 z m 275 1099 b 336 1038 275 1064 301 1038 b 397 1099 371 1038 397 1064 b 336 1160 397 1134 371 1160 b 275 1099 301 1160 275 1134 z "},"Å":{"ha":539,"x_min":0,"x_max":0,"o":"m 358 42 b 419 -19 358 7 384 -19 l 428 -19 b 490 42 463 -19 490 7 l 490 760 b 269 978 490 893 403 978 b 49 760 135 978 49 893 l 49 42 b 110 -19 49 7 75 -19 l 119 -19 b 180 42 154 -19 180 7 l 180 424 l 358 424 z m 180 534 l 180 760 b 269 868 180 826 215 868 b 358 760 323 868 358 826 l 358 534 z m 190 1134 b 269 1057 190 1084 219 1057 b 348 1134 319 1057 348 1084 l 348 1155 b 269 1232 348 1204 319 1232 b 190 1155 219 1232 190 1204 z m 240 1134 l 240 1155 b 269 1191 240 1178 251 1191 b 298 1155 287 1191 298 1178 l 298 1134 b 269 1098 298 1111 287 1098 b 240 1134 251 1098 240 1111 z "},"Æ":{"ha":751,"x_min":0,"x_max":0,"o":"m 180 424 l 358 424 l 358 61 b 419 0 358 26 384 0 l 678 0 b 739 55 712 0 739 24 b 678 110 739 87 712 110 l 490 110 l 490 424 l 642 424 b 703 479 677 424 703 448 b 642 534 703 510 677 534 l 490 534 l 490 848 l 678 848 b 739 904 712 848 739 872 b 678 959 739 936 712 959 l 419 959 b 387 950 407 959 396 955 b 269 978 354 968 315 978 b 49 760 135 978 49 893 l 49 42 b 110 -19 49 7 75 -19 l 119 -19 b 180 42 154 -19 180 7 l 180 424 z m 180 534 l 180 760 b 269 868 180 826 215 868 b 358 760 323 868 358 826 l 358 534 z "},"Ç":{"ha":514,"x_min":0,"x_max":0,"o":"m 485 266 b 424 327 485 301 459 327 l 415 327 b 354 266 380 327 354 301 l 354 199 b 265 91 354 133 319 91 b 176 199 211 91 176 133 l 176 760 b 265 868 176 826 211 868 b 354 760 319 868 354 826 l 354 693 b 415 632 354 658 380 632 l 424 632 b 485 693 459 632 485 658 l 485 760 b 265 978 485 893 399 978 b 44 760 131 978 44 893 l 44 199 b 211 -14 44 85 108 6 l 189 -46 b 200 -97 179 -62 183 -86 l 207 -102 b 253 -110 221 -110 230 -110 b 278 -123 273 -110 278 -115 b 243 -137 278 -135 265 -137 b 206 -174 221 -137 206 -151 l 206 -183 b 243 -219 206 -205 221 -219 l 265 -219 b 369 -127 328 -219 369 -186 b 285 -44 369 -83 337 -48 l 306 -20 b 309 -16 307 -19 308 -18 b 485 199 417 1 485 81 l 485 266 z "},"È":{"ha":446,"x_min":0,"x_max":0,"o":"m 51 61 b 113 0 51 26 78 0 l 371 0 b 432 55 406 0 432 24 b 371 110 432 87 406 110 l 183 110 l 183 424 l 335 424 b 397 479 370 424 397 448 b 335 534 397 510 370 534 l 183 534 l 183 848 l 371 848 b 432 904 406 848 432 872 b 371 959 432 936 406 959 l 113 959 b 51 898 78 959 51 932 z m 188 1183 l 180 1173 b 181 1104 162 1153 158 1120 l 250 1051 b 320 1052 272 1034 299 1032 l 328 1060 b 327 1130 347 1080 349 1113 l 257 1184 b 188 1183 236 1201 207 1204 z "},"É":{"ha":446,"x_min":0,"x_max":0,"o":"m 51 61 b 113 0 51 26 78 0 l 371 0 b 432 55 406 0 432 24 b 371 110 432 87 406 110 l 183 110 l 183 424 l 335 424 b 397 479 370 424 397 448 b 335 534 397 510 370 534 l 183 534 l 183 848 l 371 848 b 432 904 406 848 432 872 b 371 959 432 936 406 959 l 113 959 b 51 898 78 959 51 932 z m 181 1130 b 180 1060 159 1113 160 1080 l 188 1052 b 257 1051 208 1032 236 1034 l 327 1104 b 328 1173 350 1120 346 1153 l 320 1183 b 250 1184 301 1204 272 1201 l 181 1130 z "},"Ê":{"ha":446,"x_min":0,"x_max":0,"o":"m 51 61 b 113 0 51 26 78 0 l 371 0 b 432 55 406 0 432 24 b 371 110 432 87 406 110 l 183 110 l 183 424 l 335 424 b 397 479 370 424 397 448 b 335 534 397 510 370 534 l 183 534 l 183 848 l 371 848 b 432 904 406 848 432 872 b 371 959 432 936 406 959 l 113 959 b 51 898 78 959 51 932 z m 147 1060 l 156 1052 b 225 1051 176 1032 204 1034 l 254 1072 l 281 1051 b 351 1052 303 1034 331 1032 l 359 1060 b 358 1130 379 1080 380 1113 l 279 1190 b 253 1197 271 1196 262 1197 b 228 1190 244 1197 236 1196 l 148 1130 b 147 1060 127 1113 128 1080 z "},"Ë":{"ha":446,"x_min":0,"x_max":0,"o":"m 51 61 b 113 0 51 26 78 0 l 371 0 b 432 55 406 0 432 24 b 371 110 432 87 406 110 l 183 110 l 183 424 l 335 424 b 397 479 370 424 397 448 b 335 534 397 510 370 534 l 183 534 l 183 848 l 371 848 b 432 904 406 848 432 872 b 371 959 432 936 406 959 l 113 959 b 51 898 78 959 51 932 z m 126 1099 b 187 1038 126 1064 152 1038 b 248 1099 222 1038 248 1064 b 187 1160 248 1134 222 1160 b 126 1099 152 1160 126 1134 z m 260 1099 b 321 1038 260 1064 286 1038 b 382 1099 356 1038 382 1064 b 321 1160 382 1134 356 1160 b 260 1099 286 1160 260 1134 z "},"Ì":{"ha":238,"x_min":0,"x_max":0,"o":"m 52 1183 l 44 1173 b 45 1104 26 1153 22 1120 l 115 1051 b 184 1052 136 1034 164 1032 l 192 1060 b 191 1130 212 1080 213 1113 l 122 1184 b 52 1183 100 1201 71 1204 z m 113 -19 l 123 -19 b 184 42 158 -19 184 7 l 184 917 b 123 978 184 951 158 978 l 113 978 b 52 917 79 978 52 951 l 52 42 b 113 -19 52 7 79 -19 z "},"Í":{"ha":238,"x_min":0,"x_max":0,"o":"m 45 1130 b 44 1060 23 1113 25 1080 l 52 1052 b 122 1051 73 1032 100 1034 l 191 1104 b 192 1173 214 1120 210 1153 l 184 1183 b 115 1184 165 1204 136 1201 l 45 1130 z m 113 -19 l 123 -19 b 184 42 158 -19 184 7 l 184 917 b 123 978 184 951 158 978 l 113 978 b 52 917 79 978 52 951 l 52 42 b 113 -19 52 7 79 -19 z "},"Î":{"ha":238,"x_min":0,"x_max":0,"o":"m 12 1060 l 20 1052 b 90 1051 41 1032 68 1034 l 119 1072 l 146 1051 b 216 1052 168 1034 195 1032 l 224 1060 b 223 1130 243 1080 244 1113 l 144 1190 b 117 1197 135 1196 127 1197 b 92 1190 109 1197 101 1196 l 13 1130 b 12 1060 -8 1113 -7 1080 z m 114 -19 l 123 -19 b 184 42 158 -19 184 7 l 184 917 b 123 978 184 951 158 978 l 114 978 b 53 917 79 978 53 951 l 53 42 b 114 -19 53 7 79 -19 z "},"Ï":{"ha":238,"x_min":0,"x_max":0,"o":"m -10 1099 b 51 1038 -10 1064 17 1038 b 113 1099 86 1038 113 1064 b 51 1160 113 1134 86 1160 b -10 1099 17 1160 -10 1134 z m 114 -19 l 123 -19 b 184 42 158 -19 184 7 l 184 917 b 123 978 184 951 158 978 l 114 978 b 53 917 79 978 53 951 l 53 42 b 114 -19 53 7 79 -19 z m 124 1099 b 186 1038 124 1064 151 1038 b 247 1099 220 1038 247 1064 b 186 1160 247 1134 220 1160 b 124 1099 151 1160 124 1134 z "},"Ð":{"ha":571,"x_min":0,"x_max":0,"o":"m 147 0 l 306 0 b 527 218 440 0 527 85 l 527 741 b 306 959 527 874 440 959 l 147 959 b 86 898 112 959 86 932 l 86 534 l 63 534 b 14 485 35 534 14 513 l 14 473 b 63 424 14 446 35 424 l 86 424 l 86 61 b 147 0 86 26 112 0 z m 218 110 l 218 424 l 305 424 b 354 473 333 424 354 446 l 354 485 b 305 534 354 513 333 534 l 218 534 l 218 848 l 306 848 b 395 741 360 848 395 806 l 395 218 b 306 110 395 152 360 110 z "},"Ñ":{"ha":547,"x_min":0,"x_max":0,"o":"m 362 42 b 423 -19 362 7 388 -19 l 433 -19 b 494 42 467 -19 494 7 l 494 917 b 433 978 494 951 467 978 l 423 978 b 362 917 388 978 362 951 l 362 726 l 205 929 b 123 978 179 962 157 978 l 114 978 b 53 917 79 978 53 951 l 53 42 b 114 -19 53 7 79 -19 l 123 -19 b 185 42 158 -19 185 7 l 185 751 l 362 526 l 362 42 z m 219 1197 b 122 1096 171 1197 122 1119 b 137 1060 122 1083 127 1070 l 145 1052 b 179 1038 155 1043 167 1038 b 242 1071 203 1038 218 1071 b 327 1038 271 1071 300 1038 b 424 1138 375 1038 424 1116 b 410 1174 424 1152 419 1165 l 401 1183 b 368 1197 393 1191 380 1197 b 304 1162 351 1197 321 1162 b 219 1197 278 1162 250 1197 z "},"Ò":{"ha":531,"x_min":0,"x_max":0,"o":"m 44 760 l 44 199 b 265 -19 44 66 131 -19 b 485 199 399 -19 485 66 l 485 760 b 265 978 485 893 399 978 b 44 760 131 978 44 893 z m 199 1183 l 191 1173 b 192 1104 173 1153 169 1120 l 261 1051 b 331 1052 283 1034 310 1032 l 339 1060 b 338 1130 358 1080 360 1113 l 269 1184 b 199 1183 247 1201 218 1204 z m 176 199 l 176 760 b 265 868 176 826 211 868 b 354 760 319 868 354 826 l 354 199 b 265 91 354 133 319 91 b 176 199 211 91 176 133 z "},"Ó":{"ha":531,"x_min":0,"x_max":0,"o":"m 44 760 l 44 199 b 265 -19 44 66 131 -19 b 485 199 399 -19 485 66 l 485 760 b 265 978 485 893 399 978 b 44 760 131 978 44 893 z m 192 1130 b 191 1060 170 1113 171 1080 l 199 1052 b 269 1051 219 1032 247 1034 l 338 1104 b 339 1173 361 1120 357 1153 l 331 1183 b 261 1184 312 1204 283 1201 l 192 1130 z m 176 199 l 176 760 b 265 868 176 826 211 868 b 354 760 319 868 354 826 l 354 199 b 265 91 354 133 319 91 b 176 199 211 91 176 133 z "},"Ô":{"ha":531,"x_min":0,"x_max":0,"o":"m 44 760 l 44 199 b 265 -19 44 66 131 -19 b 485 199 399 -19 485 66 l 485 760 b 265 978 485 893 399 978 b 44 760 131 978 44 893 z m 158 1060 l 167 1052 b 236 1051 187 1032 215 1034 l 265 1072 l 292 1051 b 362 1052 314 1034 342 1032 l 370 1060 b 369 1130 390 1080 391 1113 l 290 1190 b 264 1197 282 1196 273 1197 b 239 1190 255 1197 247 1196 l 159 1130 b 158 1060 138 1113 139 1080 z m 176 199 l 176 760 b 265 868 176 826 211 868 b 354 760 319 868 354 826 l 354 199 b 265 91 354 133 319 91 b 176 199 211 91 176 133 z "},"Õ":{"ha":531,"x_min":0,"x_max":0,"o":"m 44 760 l 44 199 b 265 -19 44 66 131 -19 b 485 199 399 -19 485 66 l 485 760 b 265 978 485 893 399 978 b 44 760 131 978 44 893 z m 211 1197 b 114 1096 163 1197 114 1119 b 128 1060 114 1083 119 1070 l 137 1052 b 170 1038 146 1043 158 1038 b 234 1071 194 1038 210 1071 b 319 1038 263 1071 291 1038 b 416 1138 367 1038 416 1116 b 402 1174 416 1152 411 1165 l 393 1183 b 360 1197 385 1191 372 1197 b 296 1162 343 1197 313 1162 b 211 1197 270 1162 242 1197 z m 176 199 l 176 760 b 265 868 176 826 211 868 b 354 760 319 868 354 826 l 354 199 b 265 91 354 133 319 91 b 176 199 211 91 176 133 z "},"Ö":{"ha":531,"x_min":0,"x_max":0,"o":"m 44 760 l 44 199 b 265 -19 44 66 131 -19 b 485 199 399 -19 485 66 l 485 760 b 265 978 485 893 399 978 b 44 760 131 978 44 893 z m 137 1099 b 198 1038 137 1064 163 1038 b 259 1099 233 1038 259 1064 b 198 1160 259 1134 233 1160 b 137 1099 163 1160 137 1134 z m 176 199 l 176 760 b 265 868 176 826 211 868 b 354 760 319 868 354 826 l 354 199 b 265 91 354 133 319 91 b 176 199 211 91 176 133 z m 271 1099 b 332 1038 271 1064 297 1038 b 393 1099 367 1038 393 1064 b 332 1160 393 1134 367 1160 b 271 1099 297 1160 271 1134 z "},"×":{"ha":439,"x_min":0,"x_max":0,"o":"m 61 646 l 53 637 b 53 568 32 618 32 588 l 141 479 l 53 391 b 53 321 32 370 32 340 l 61 313 b 131 313 80 292 110 292 l 219 401 l 308 313 b 378 313 328 292 358 292 l 386 321 b 386 391 406 340 406 370 l 297 479 l 386 568 b 386 637 406 588 406 618 l 378 646 b 308 646 358 666 328 666 l 219 557 l 131 646 b 61 646 110 666 80 666 z "},"Ø":{"ha":546,"x_min":0,"x_max":0,"o":"m 272 978 b 51 760 137 978 51 893 l 51 199 b 69 102 51 163 57 131 l 25 -28 b 74 -101 13 -62 27 -101 l 84 -101 b 159 -40 123 -101 147 -74 l 172 -1 b 272 -19 201 -13 235 -19 b 492 199 406 -19 492 66 l 492 760 b 473 859 492 797 485 830 l 517 986 b 468 1059 529 1021 515 1059 l 459 1059 b 383 998 419 1059 395 1033 l 370 960 b 272 978 341 972 308 978 z m 183 199 l 183 760 b 272 868 183 826 218 868 b 360 760 326 868 360 826 l 360 199 b 272 91 360 133 326 91 b 183 199 218 91 183 133 z "},"Ù":{"ha":539,"x_min":0,"x_max":0,"o":"m 490 917 b 428 978 490 951 463 978 l 419 978 b 358 917 384 978 358 951 l 358 199 b 269 91 358 133 323 91 b 180 199 215 91 180 133 l 180 917 b 119 978 180 951 154 978 l 110 978 b 49 917 75 978 49 951 l 49 199 b 269 -19 49 66 135 -19 b 490 199 403 -19 490 66 l 490 917 z m 203 1183 l 195 1173 b 196 1104 177 1153 173 1120 l 266 1051 b 335 1052 287 1034 315 1032 l 343 1060 b 342 1130 363 1080 364 1113 l 273 1184 b 203 1183 251 1201 222 1204 z "},"Ú":{"ha":539,"x_min":0,"x_max":0,"o":"m 490 917 b 428 978 490 951 463 978 l 419 978 b 358 917 384 978 358 951 l 358 199 b 269 91 358 133 323 91 b 180 199 215 91 180 133 l 180 917 b 119 978 180 951 154 978 l 110 978 b 49 917 75 978 49 951 l 49 199 b 269 -19 49 66 135 -19 b 490 199 403 -19 490 66 l 490 917 z m 196 1130 b 195 1060 174 1113 176 1080 l 203 1052 b 273 1051 224 1032 251 1034 l 342 1104 b 343 1173 365 1120 361 1153 l 335 1183 b 266 1184 316 1204 287 1201 l 196 1130 z "},"Û":{"ha":539,"x_min":0,"x_max":0,"o":"m 490 917 b 428 978 490 951 463 978 l 419 978 b 358 917 384 978 358 951 l 358 199 b 269 91 358 133 323 91 b 180 199 215 91 180 133 l 180 917 b 119 978 180 951 154 978 l 110 978 b 49 917 75 978 49 951 l 49 199 b 269 -19 49 66 135 -19 b 490 199 403 -19 490 66 l 490 917 z m 162 1060 l 171 1052 b 240 1051 191 1032 219 1034 l 269 1072 l 297 1051 b 366 1052 318 1034 346 1032 l 375 1060 b 373 1130 394 1080 395 1113 l 294 1190 b 268 1197 286 1196 277 1197 b 243 1190 260 1197 251 1196 l 164 1130 b 162 1060 142 1113 143 1080 z "},"Ü":{"ha":539,"x_min":0,"x_max":0,"o":"m 490 917 b 428 978 490 951 463 978 l 419 978 b 358 917 384 978 358 951 l 358 199 b 269 91 358 133 323 91 b 180 199 215 91 180 133 l 180 917 b 119 978 180 951 154 978 l 110 978 b 49 917 75 978 49 951 l 49 199 b 269 -19 49 66 135 -19 b 490 199 403 -19 490 66 l 490 917 z m 141 1099 b 202 1038 141 1064 167 1038 b 263 1099 237 1038 263 1064 b 202 1160 263 1134 237 1160 b 141 1099 167 1160 141 1134 z m 275 1099 b 336 1038 275 1064 301 1038 b 397 1099 371 1038 397 1064 b 336 1160 397 1134 371 1160 b 275 1099 301 1160 275 1134 z "},"Ý":{"ha":503,"x_min":0,"x_max":0,"o":"m 185 42 b 247 -19 185 7 212 -19 l 256 -19 b 317 42 291 -19 317 7 l 317 424 l 507 917 b 454 978 520 951 489 978 l 444 978 b 372 917 400 978 386 951 l 251 602 l 130 917 b 58 978 117 951 103 978 l 49 978 b -4 917 14 978 -17 951 l 185 424 z m 178 1130 b 177 1060 157 1113 158 1080 l 185 1052 b 255 1051 206 1032 233 1034 l 324 1104 b 326 1173 347 1120 344 1153 l 317 1183 b 248 1184 298 1204 269 1201 l 178 1130 z "},"à":{"ha":539,"x_min":0,"x_max":0,"o":"m 358 42 b 419 -19 358 7 384 -19 l 428 -19 b 490 42 463 -19 490 7 l 490 760 b 269 978 490 893 403 978 b 49 760 135 978 49 893 l 49 42 b 110 -19 49 7 75 -19 l 119 -19 b 180 42 154 -19 180 7 l 180 424 l 358 424 l 358 42 z m 203 1183 l 195 1173 b 196 1104 177 1153 173 1120 l 266 1051 b 335 1052 287 1034 315 1032 l 343 1060 b 342 1130 363 1080 364 1113 l 273 1184 b 203 1183 251 1201 222 1204 z m 180 534 l 180 760 b 269 868 180 826 215 868 b 358 760 323 868 358 826 l 358 534 z "},"á":{"ha":539,"x_min":0,"x_max":0,"o":"m 358 42 b 419 -19 358 7 384 -19 l 428 -19 b 490 42 463 -19 490 7 l 490 760 b 269 978 490 893 403 978 b 49 760 135 978 49 893 l 49 42 b 110 -19 49 7 75 -19 l 119 -19 b 180 42 154 -19 180 7 l 180 424 l 358 424 z m 196 1130 b 195 1060 174 1113 176 1080 l 203 1052 b 273 1051 224 1032 251 1034 l 342 1104 b 343 1173 365 1120 361 1153 l 335 1183 b 266 1184 316 1204 287 1201 l 196 1130 z m 180 534 l 180 760 b 269 868 180 826 215 868 b 358 760 323 868 358 826 l 358 534 z "},"â":{"ha":539,"x_min":0,"x_max":0,"o":"m 358 42 b 419 -19 358 7 384 -19 l 428 -19 b 490 42 463 -19 490 7 l 490 760 b 269 978 490 893 403 978 b 49 760 135 978 49 893 l 49 42 b 110 -19 49 7 75 -19 l 119 -19 b 180 42 154 -19 180 7 l 180 424 l 358 424 z m 162 1060 l 171 1052 b 240 1051 191 1032 219 1034 l 269 1072 l 297 1051 b 366 1052 318 1034 346 1032 l 375 1060 b 373 1130 394 1080 395 1113 l 294 1190 b 268 1197 286 1196 277 1197 b 243 1190 260 1197 251 1196 l 164 1130 b 162 1060 142 1113 143 1080 z m 180 534 l 180 760 b 269 868 180 826 215 868 b 358 760 323 868 358 826 l 358 534 z "},"ã":{"ha":539,"x_min":0,"x_max":0,"o":"m 358 42 b 419 -19 358 7 384 -19 l 428 -19 b 490 42 463 -19 490 7 l 490 760 b 269 978 490 893 403 978 b 49 760 135 978 49 893 l 49 42 b 110 -19 49 7 75 -19 l 119 -19 b 180 42 154 -19 180 7 l 180 424 l 358 424 z m 215 1197 b 118 1096 167 1197 118 1119 b 132 1060 118 1083 123 1070 l 141 1052 b 174 1038 150 1043 162 1038 b 238 1071 198 1038 214 1071 b 323 1038 267 1071 295 1038 b 420 1138 371 1038 420 1116 b 406 1174 420 1152 415 1165 l 397 1183 b 364 1197 389 1191 376 1197 b 300 1162 347 1197 317 1162 b 215 1197 274 1162 246 1197 z m 180 534 l 180 760 b 269 868 180 826 215 868 b 358 760 323 868 358 826 l 358 534 z "},"ä":{"ha":539,"x_min":0,"x_max":0,"o":"m 358 42 b 419 -19 358 7 384 -19 l 428 -19 b 490 42 463 -19 490 7 l 490 760 b 269 978 490 893 403 978 b 49 760 135 978 49 893 l 49 42 b 110 -19 49 7 75 -19 l 119 -19 b 180 42 154 -19 180 7 l 180 424 l 358 424 z m 141 1099 b 202 1038 141 1064 167 1038 b 263 1099 237 1038 263 1064 b 202 1160 263 1134 237 1160 b 141 1099 167 1160 141 1134 z m 180 534 l 180 760 b 269 868 180 826 215 868 b 358 760 323 868 358 826 l 358 534 z m 275 1099 b 336 1038 275 1064 301 1038 b 397 1099 371 1038 397 1064 b 336 1160 397 1134 371 1160 b 275 1099 301 1160 275 1134 z "},"å":{"ha":539,"x_min":0,"x_max":0,"o":"m 358 42 b 419 -19 358 7 384 -19 l 428 -19 b 490 42 463 -19 490 7 l 490 760 b 269 978 490 893 403 978 b 49 760 135 978 49 893 l 49 42 b 110 -19 49 7 75 -19 l 119 -19 b 180 42 154 -19 180 7 l 180 424 l 358 424 z m 180 534 l 180 760 b 269 868 180 826 215 868 b 358 760 323 868 358 826 l 358 534 z m 190 1134 b 269 1057 190 1084 219 1057 b 348 1134 319 1057 348 1084 l 348 1155 b 269 1232 348 1204 319 1232 b 190 1155 219 1232 190 1204 z m 240 1134 l 240 1155 b 269 1191 240 1178 251 1191 b 298 1155 287 1191 298 1178 l 298 1134 b 269 1098 298 1111 287 1098 b 240 1134 251 1098 240 1111 z "},"æ":{"ha":751,"x_min":0,"x_max":0,"o":"m 180 424 l 358 424 l 358 61 b 419 0 358 26 384 0 l 678 0 b 739 55 712 0 739 24 b 678 110 739 87 712 110 l 490 110 l 490 424 l 642 424 b 703 479 677 424 703 448 b 642 534 703 510 677 534 l 490 534 l 490 848 l 678 848 b 739 904 712 848 739 872 b 678 959 739 936 712 959 l 419 959 b 387 950 407 959 396 955 b 269 978 354 968 315 978 b 49 760 135 978 49 893 l 49 42 b 110 -19 49 7 75 -19 l 119 -19 b 180 42 154 -19 180 7 l 180 424 z m 180 534 l 180 760 b 269 868 180 826 215 868 b 358 760 323 868 358 826 l 358 534 z "},"ç":{"ha":514,"x_min":0,"x_max":0,"o":"m 485 266 b 424 327 485 301 459 327 l 415 327 b 354 266 380 327 354 301 l 354 199 b 265 91 354 133 319 91 b 176 199 211 91 176 133 l 176 760 b 265 868 176 826 211 868 b 354 760 319 868 354 826 l 354 693 b 415 632 354 658 380 632 l 424 632 b 485 693 459 632 485 658 l 485 760 b 265 978 485 893 399 978 b 44 760 131 978 44 893 l 44 199 b 211 -14 44 85 108 6 l 189 -46 b 200 -97 179 -62 183 -86 l 207 -102 b 253 -110 221 -110 230 -110 b 278 -123 273 -110 278 -115 b 243 -137 278 -135 265 -137 b 206 -174 221 -137 206 -151 l 206 -183 b 243 -219 206 -205 221 -219 l 265 -219 b 369 -127 328 -219 369 -186 b 285 -44 369 -83 337 -48 l 306 -20 b 309 -16 307 -19 308 -18 b 485 199 417 1 485 81 l 485 266 z "},"è":{"ha":446,"x_min":0,"x_max":0,"o":"m 51 61 b 113 0 51 26 78 0 l 371 0 b 432 55 406 0 432 24 b 371 110 432 87 406 110 l 183 110 l 183 424 l 335 424 b 397 479 370 424 397 448 b 335 534 397 510 370 534 l 183 534 l 183 848 l 371 848 b 432 904 406 848 432 872 b 371 959 432 936 406 959 l 113 959 b 51 898 78 959 51 932 z m 188 1183 l 180 1173 b 181 1104 162 1153 158 1120 l 250 1051 b 320 1052 272 1034 299 1032 l 328 1060 b 327 1130 347 1080 349 1113 l 257 1184 b 188 1183 236 1201 207 1204 z "},"é":{"ha":446,"x_min":0,"x_max":0,"o":"m 51 61 b 113 0 51 26 78 0 l 371 0 b 432 55 406 0 432 24 b 371 110 432 87 406 110 l 183 110 l 183 424 l 335 424 b 397 479 370 424 397 448 b 335 534 397 510 370 534 l 183 534 l 183 848 l 371 848 b 432 904 406 848 432 872 b 371 959 432 936 406 959 l 113 959 b 51 898 78 959 51 932 z m 181 1130 b 180 1060 159 1113 160 1080 l 188 1052 b 257 1051 208 1032 236 1034 l 327 1104 b 328 1173 350 1120 346 1153 l 320 1183 b 250 1184 301 1204 272 1201 l 181 1130 z "},"ê":{"ha":446,"x_min":0,"x_max":0,"o":"m 51 61 b 113 0 51 26 78 0 l 371 0 b 432 55 406 0 432 24 b 371 110 432 87 406 110 l 183 110 l 183 424 l 335 424 b 397 479 370 424 397 448 b 335 534 397 510 370 534 l 183 534 l 183 848 l 371 848 b 432 904 406 848 432 872 b 371 959 432 936 406 959 l 113 959 b 51 898 78 959 51 932 z m 147 1060 l 156 1052 b 225 1051 176 1032 204 1034 l 254 1072 l 281 1051 b 351 1052 303 1034 331 1032 l 359 1060 b 358 1130 379 1080 380 1113 l 279 1190 b 253 1197 271 1196 262 1197 b 228 1190 244 1197 236 1196 l 148 1130 b 147 1060 127 1113 128 1080 z "},"ë":{"ha":446,"x_min":0,"x_max":0,"o":"m 51 61 b 113 0 51 26 78 0 l 371 0 b 432 55 406 0 432 24 b 371 110 432 87 406 110 l 183 110 l 183 424 l 335 424 b 397 479 370 424 397 448 b 335 534 397 510 370 534 l 183 534 l 183 848 l 371 848 b 432 904 406 848 432 872 b 371 959 432 936 406 959 l 113 959 b 51 898 78 959 51 932 z m 126 1099 b 187 1038 126 1064 152 1038 b 248 1099 222 1038 248 1064 b 187 1160 248 1134 222 1160 b 126 1099 152 1160 126 1134 z m 260 1099 b 321 1038 260 1064 286 1038 b 382 1099 356 1038 382 1064 b 321 1160 382 1134 356 1160 b 260 1099 286 1160 260 1134 z "},"ì":{"ha":238,"x_min":0,"x_max":0,"o":"m 52 1183 l 44 1173 b 45 1104 26 1153 22 1120 l 115 1051 b 184 1052 136 1034 164 1032 l 192 1060 b 191 1130 212 1080 213 1113 l 122 1184 b 52 1183 100 1201 71 1204 z m 113 -19 l 123 -19 b 184 42 158 -19 184 7 l 184 917 b 123 978 184 951 158 978 l 113 978 b 52 917 79 978 52 951 l 52 42 b 113 -19 52 7 79 -19 z "},"í":{"ha":238,"x_min":0,"x_max":0,"o":"m 45 1130 b 44 1060 23 1113 25 1080 l 52 1052 b 122 1051 73 1032 100 1034 l 191 1104 b 192 1173 214 1120 210 1153 l 184 1183 b 115 1184 165 1204 136 1201 l 45 1130 z m 113 -19 l 123 -19 b 184 42 158 -19 184 7 l 184 917 b 123 978 184 951 158 978 l 113 978 b 52 917 79 978 52 951 l 52 42 b 113 -19 52 7 79 -19 z "},"î":{"ha":238,"x_min":0,"x_max":0,"o":"m 12 1060 l 20 1052 b 90 1051 41 1032 68 1034 l 119 1072 l 146 1051 b 216 1052 168 1034 195 1032 l 224 1060 b 223 1130 243 1080 244 1113 l 144 1190 b 117 1197 135 1196 127 1197 b 92 1190 109 1197 101 1196 l 13 1130 b 12 1060 -8 1113 -7 1080 z m 114 -19 l 123 -19 b 184 42 158 -19 184 7 l 184 917 b 123 978 184 951 158 978 l 114 978 b 53 917 79 978 53 951 l 53 42 b 114 -19 53 7 79 -19 z "},"ï":{"ha":238,"x_min":0,"x_max":0,"o":"m -10 1099 b 51 1038 -10 1064 17 1038 b 113 1099 86 1038 113 1064 b 51 1160 113 1134 86 1160 b -10 1099 17 1160 -10 1134 z m 114 -19 l 123 -19 b 184 42 158 -19 184 7 l 184 917 b 123 978 184 951 158 978 l 114 978 b 53 917 79 978 53 951 l 53 42 b 114 -19 53 7 79 -19 z m 124 1099 b 186 1038 124 1064 151 1038 b 247 1099 220 1038 247 1064 b 186 1160 247 1134 220 1160 b 124 1099 151 1160 124 1134 z "},"ñ":{"ha":547,"x_min":0,"x_max":0,"o":"m 362 42 b 423 -19 362 7 388 -19 l 433 -19 b 494 42 467 -19 494 7 l 494 917 b 433 978 494 951 467 978 l 423 978 b 362 917 388 978 362 951 l 362 726 l 205 929 b 123 978 179 962 157 978 l 114 978 b 53 917 79 978 53 951 l 53 42 b 114 -19 53 7 79 -19 l 123 -19 b 185 42 158 -19 185 7 l 185 751 l 362 526 l 362 42 z m 219 1197 b 122 1096 171 1197 122 1119 b 137 1060 122 1083 127 1070 l 145 1052 b 179 1038 155 1043 167 1038 b 242 1071 203 1038 218 1071 b 327 1038 271 1071 300 1038 b 424 1138 375 1038 424 1116 b 410 1174 424 1152 419 1165 l 401 1183 b 368 1197 393 1191 380 1197 b 304 1162 351 1197 321 1162 b 219 1197 278 1162 250 1197 z "},"ò":{"ha":531,"x_min":0,"x_max":0,"o":"m 44 760 l 44 199 b 265 -19 44 66 131 -19 b 485 199 399 -19 485 66 l 485 760 b 265 978 485 893 399 978 b 44 760 131 978 44 893 z m 199 1183 l 191 1173 b 192 1104 173 1153 169 1120 l 261 1051 b 331 1052 283 1034 310 1032 l 339 1060 b 338 1130 358 1080 360 1113 l 269 1184 b 199 1183 247 1201 218 1204 z m 176 199 l 176 760 b 265 868 176 826 211 868 b 354 760 319 868 354 826 l 354 199 b 265 91 354 133 319 91 b 176 199 211 91 176 133 z "},"ó":{"ha":531,"x_min":0,"x_max":0,"o":"m 44 760 l 44 199 b 265 -19 44 66 131 -19 b 485 199 399 -19 485 66 l 485 760 b 265 978 485 893 399 978 b 44 760 131 978 44 893 z m 192 1130 b 191 1060 170 1113 171 1080 l 199 1052 b 269 1051 219 1032 247 1034 l 338 1104 b 339 1173 361 1120 357 1153 l 331 1183 b 261 1184 312 1204 283 1201 l 192 1130 z m 176 199 l 176 760 b 265 868 176 826 211 868 b 354 760 319 868 354 826 l 354 199 b 265 91 354 133 319 91 b 176 199 211 91 176 133 z "},"ô":{"ha":531,"x_min":0,"x_max":0,"o":"m 44 760 l 44 199 b 265 -19 44 66 131 -19 b 485 199 399 -19 485 66 l 485 760 b 265 978 485 893 399 978 b 44 760 131 978 44 893 z m 158 1060 l 167 1052 b 236 1051 187 1032 215 1034 l 265 1072 l 292 1051 b 362 1052 314 1034 342 1032 l 370 1060 b 369 1130 390 1080 391 1113 l 290 1190 b 264 1197 282 1196 273 1197 b 239 1190 255 1197 247 1196 l 159 1130 b 158 1060 138 1113 139 1080 z m 176 199 l 176 760 b 265 868 176 826 211 868 b 354 760 319 868 354 826 l 354 199 b 265 91 354 133 319 91 b 176 199 211 91 176 133 z "},"õ":{"ha":531,"x_min":0,"x_max":0,"o":"m 44 760 l 44 199 b 265 -19 44 66 131 -19 b 485 199 399 -19 485 66 l 485 760 b 265 978 485 893 399 978 b 44 760 131 978 44 893 z m 211 1197 b 114 1096 163 1197 114 1119 b 128 1060 114 1083 119 1070 l 137 1052 b 170 1038 146 1043 158 1038 b 234 1071 194 1038 210 1071 b 319 1038 263 1071 291 1038 b 416 1138 367 1038 416 1116 b 402 1174 416 1152 411 1165 l 393 1183 b 360 1197 385 1191 372 1197 b 296 1162 343 1197 313 1162 b 211 1197 270 1162 242 1197 z m 176 199 l 176 760 b 265 868 176 826 211 868 b 354 760 319 868 354 826 l 354 199 b 265 91 354 133 319 91 b 176 199 211 91 176 133 z "},"ö":{"ha":531,"x_min":0,"x_max":0,"o":"m 44 760 l 44 199 b 265 -19 44 66 131 -19 b 485 199 399 -19 485 66 l 485 760 b 265 978 485 893 399 978 b 44 760 131 978 44 893 z m 137 1099 b 198 1038 137 1064 163 1038 b 259 1099 233 1038 259 1064 b 198 1160 259 1134 233 1160 b 137 1099 163 1160 137 1134 z m 176 199 l 176 760 b 265 868 176 826 211 868 b 354 760 319 868 354 826 l 354 199 b 265 91 354 133 319 91 b 176 199 211 91 176 133 z m 271 1099 b 332 1038 271 1064 297 1038 b 393 1099 367 1038 393 1064 b 332 1160 393 1134 367 1160 b 271 1099 297 1160 271 1134 z "},"÷":{"ha":457,"x_min":0,"x_max":0,"o":"m 22 485 l 22 473 b 71 424 22 446 44 424 l 385 424 b 434 473 413 424 434 446 l 434 485 b 385 534 434 513 413 534 l 71 534 b 22 485 44 534 22 513 z m 162 667 b 224 606 162 633 189 606 l 233 606 b 294 667 268 606 294 633 l 294 703 b 233 765 294 738 268 765 l 224 765 b 162 703 189 765 162 738 z m 162 255 b 224 194 162 220 189 194 l 233 194 b 294 255 268 194 294 220 l 294 291 b 233 352 294 326 268 352 l 224 352 b 162 291 189 352 162 326 z "},"ø":{"ha":546,"x_min":0,"x_max":0,"o":"m 272 978 b 51 760 137 978 51 893 l 51 199 b 69 102 51 163 57 131 l 25 -28 b 74 -101 13 -62 27 -101 l 84 -101 b 159 -40 123 -101 147 -74 l 172 -1 b 272 -19 201 -13 235 -19 b 492 199 406 -19 492 66 l 492 760 b 473 859 492 797 485 830 l 517 986 b 468 1059 529 1021 515 1059 l 459 1059 b 383 998 419 1059 395 1033 l 370 960 b 272 978 341 972 308 978 z m 183 199 l 183 760 b 272 868 183 826 218 868 b 360 760 326 868 360 826 l 360 199 b 272 91 360 133 326 91 b 183 199 218 91 183 133 z "},"ù":{"ha":539,"x_min":0,"x_max":0,"o":"m 490 917 b 428 978 490 951 463 978 l 419 978 b 358 917 384 978 358 951 l 358 199 b 269 91 358 133 323 91 b 180 199 215 91 180 133 l 180 917 b 119 978 180 951 154 978 l 110 978 b 49 917 75 978 49 951 l 49 199 b 269 -19 49 66 135 -19 b 490 199 403 -19 490 66 l 490 917 z m 203 1183 l 195 1173 b 196 1104 177 1153 173 1120 l 266 1051 b 335 1052 287 1034 315 1032 l 343 1060 b 342 1130 363 1080 364 1113 l 273 1184 b 203 1183 251 1201 222 1204 z "},"ú":{"ha":539,"x_min":0,"x_max":0,"o":"m 490 917 b 428 978 490 951 463 978 l 419 978 b 358 917 384 978 358 951 l 358 199 b 269 91 358 133 323 91 b 180 199 215 91 180 133 l 180 917 b 119 978 180 951 154 978 l 110 978 b 49 917 75 978 49 951 l 49 199 b 269 -19 49 66 135 -19 b 490 199 403 -19 490 66 l 490 917 z m 196 1130 b 195 1060 174 1113 176 1080 l 203 1052 b 273 1051 224 1032 251 1034 l 342 1104 b 343 1173 365 1120 361 1153 l 335 1183 b 266 1184 316 1204 287 1201 l 196 1130 z "},"û":{"ha":539,"x_min":0,"x_max":0,"o":"m 490 917 b 428 978 490 951 463 978 l 419 978 b 358 917 384 978 358 951 l 358 199 b 269 91 358 133 323 91 b 180 199 215 91 180 133 l 180 917 b 119 978 180 951 154 978 l 110 978 b 49 917 75 978 49 951 l 49 199 b 269 -19 49 66 135 -19 b 490 199 403 -19 490 66 l 490 917 z m 162 1060 l 171 1052 b 240 1051 191 1032 219 1034 l 269 1072 l 297 1051 b 366 1052 318 1034 346 1032 l 375 1060 b 373 1130 394 1080 395 1113 l 294 1190 b 268 1197 286 1196 277 1197 b 243 1190 260 1197 251 1196 l 164 1130 b 162 1060 142 1113 143 1080 z "},"ü":{"ha":539,"x_min":0,"x_max":0,"o":"m 490 917 b 428 978 490 951 463 978 l 419 978 b 358 917 384 978 358 951 l 358 199 b 269 91 358 133 323 91 b 180 199 215 91 180 133 l 180 917 b 119 978 180 951 154 978 l 110 978 b 49 917 75 978 49 951 l 49 199 b 269 -19 49 66 135 -19 b 490 199 403 -19 490 66 l 490 917 z m 141 1099 b 202 1038 141 1064 167 1038 b 263 1099 237 1038 263 1064 b 202 1160 263 1134 237 1160 b 141 1099 167 1160 141 1134 z m 275 1099 b 336 1038 275 1064 301 1038 b 397 1099 371 1038 397 1064 b 336 1160 397 1134 371 1160 b 275 1099 301 1160 275 1134 z "},"ý":{"ha":503,"x_min":0,"x_max":0,"o":"m 185 42 b 247 -19 185 7 212 -19 l 256 -19 b 317 42 291 -19 317 7 l 317 424 l 507 917 b 454 978 520 951 489 978 l 444 978 b 372 917 400 978 386 951 l 251 602 l 130 917 b 58 978 117 951 103 978 l 49 978 b -4 917 14 978 -17 951 l 185 424 z m 178 1130 b 177 1060 157 1113 158 1080 l 185 1052 b 255 1051 206 1032 233 1034 l 324 1104 b 326 1173 347 1120 344 1153 l 317 1183 b 248 1184 298 1204 269 1201 l 178 1130 z "},"‘":{"ha":190,"x_min":0,"x_max":0,"o":"m 100 984 l 112 1037 b 106 1047 113 1041 111 1047 b 29 923 89 1047 29 968 b 90 862 29 888 56 862 l 100 862 b 161 923 135 862 161 888 b 100 984 161 957 135 984 z "},"’":{"ha":185,"x_min":0,"x_max":0,"o":"m 88 925 l 76 872 b 82 862 74 868 77 862 b 158 986 98 862 158 941 b 97 1047 158 1021 132 1047 l 88 1047 b 26 986 53 1047 26 1021 b 88 925 26 951 53 925 z "},"“":{"ha":339,"x_min":0,"x_max":0,"o":"m 29 923 b 90 862 29 888 56 862 l 100 862 b 161 923 135 862 161 888 b 100 984 161 957 135 984 l 112 1037 b 106 1047 113 1041 111 1047 b 29 923 89 1047 29 968 z m 248 984 l 260 1037 b 254 1047 262 1041 259 1047 b 178 923 238 1047 178 968 b 239 862 178 888 204 862 l 248 862 b 310 923 283 862 310 888 b 248 984 310 957 283 984 z "},"”":{"ha":333,"x_min":0,"x_max":0,"o":"m 88 925 l 76 872 b 82 862 74 868 77 862 b 158 986 98 862 158 941 b 97 1047 158 1021 132 1047 l 88 1047 b 26 986 53 1047 26 1021 b 88 925 26 951 53 925 z m 175 986 b 236 925 175 951 201 925 l 224 872 b 230 862 223 868 225 862 b 307 986 247 862 307 941 b 246 1047 307 1021 280 1047 l 236 1047 b 175 986 201 1047 175 1021 z "},"€":{"ha":621,"x_min":0,"x_max":0,"o":"m 512 327 l 502 327 b 441 266 468 327 441 301 l 441 199 b 352 91 441 133 406 91 b 264 199 299 91 264 133 l 264 345 l 464 345 b 513 394 491 345 513 367 l 513 406 b 464 455 513 434 491 455 l 264 455 l 264 503 l 464 503 b 513 552 491 503 513 525 l 513 564 b 464 614 513 592 491 614 l 264 614 l 264 760 b 352 868 264 826 299 868 b 441 760 406 868 441 826 l 441 693 b 502 632 441 658 468 632 l 512 632 b 573 693 547 632 573 658 l 573 760 b 352 978 573 893 487 978 b 132 760 218 978 132 893 l 132 614 l 85 614 b 36 564 58 614 36 592 l 36 552 b 85 503 36 525 58 503 l 132 503 l 132 455 l 85 455 b 36 406 58 455 36 434 l 36 394 b 85 345 36 367 58 345 l 132 345 l 132 199 b 352 -19 132 66 218 -19 b 573 199 487 -19 573 66 l 573 266 b 512 327 573 301 547 327 z "},"":{"ha":781,"x_min":0,"x_max":0,"o":"m 290 760 l 290 180 l 220 180 b -19 -41 75 180 -19 93 b 201 -259 -19 -174 67 -259 b 422 -41 335 -259 422 -174 l 422 70 l 489 70 b 538 119 516 70 538 91 l 538 131 b 489 180 538 158 516 180 l 422 180 l 422 424 l 599 424 l 599 42 b 660 -19 599 7 625 -19 l 670 -19 b 731 42 704 -19 731 7 l 731 760 b 510 978 731 893 644 978 b 290 760 376 978 290 893 z m 201 -149 b 112 -41 147 -149 112 -107 b 220 69 112 26 154 69 l 290 69 l 290 -41 b 201 -149 290 -107 255 -149 z m 422 534 l 422 760 b 510 868 422 826 456 868 b 599 760 564 868 599 826 l 599 534 z "},"":{"ha":604,"x_min":0,"x_max":0,"o":"m 340 1217 b 119 999 205 1217 119 1132 l 119 889 l 52 889 b 3 840 24 889 3 868 l 3 828 b 52 779 3 800 24 779 l 119 779 l 119 61 b 180 0 119 26 145 0 l 340 0 b 560 218 474 0 560 85 l 560 671 b 484 829 560 747 532 798 b 560 999 532 869 560 926 b 340 1217 560 1132 474 1217 z m 251 889 l 251 999 b 340 1107 251 1065 286 1107 b 428 999 393 1107 428 1065 b 320 889 428 932 386 889 z m 251 110 l 251 779 l 340 779 b 428 671 393 779 428 737 l 428 218 b 340 110 428 152 393 110 z "},"":{"ha":522,"x_min":0,"x_max":0,"o":"m 428 327 l 419 327 b 358 266 384 327 358 301 l 358 -41 b 269 -149 358 -107 323 -149 b 180 -41 215 -149 180 -107 l 180 760 b 269 868 180 826 215 868 b 358 760 323 868 358 826 l 358 693 b 419 632 358 658 384 632 l 428 632 b 490 693 463 632 490 658 l 490 760 b 269 978 490 893 403 978 b 49 760 135 978 49 893 l 49 -41 b 269 -259 49 -174 135 -259 b 490 -41 403 -259 490 -174 l 490 266 b 428 327 490 301 463 327 z "},"":{"ha":542,"x_min":0,"x_max":0,"o":"m 122 959 l 112 959 b 51 898 77 959 51 932 l 51 61 b 112 0 51 26 77 0 l 271 0 b 492 218 406 0 492 85 l 492 978 b 252 1198 492 1112 397 1198 l -16 1198 b -65 1149 -44 1198 -65 1177 l -65 1137 b -16 1088 -65 1110 -44 1088 l 252 1088 b 360 978 318 1088 360 1045 l 360 218 b 271 110 360 152 325 110 l 183 110 l 183 898 b 122 959 183 932 156 959 z "},"":{"ha":688,"x_min":0,"x_max":0,"o":"m 352 959 b 291 898 317 959 291 932 l 291 180 l 222 180 b -18 -41 77 180 -18 93 b 202 -259 -18 -174 68 -259 b 423 -41 337 -259 423 -174 l 423 70 l 611 70 b 672 125 646 70 672 93 b 611 180 672 157 646 180 l 423 180 l 423 424 l 575 424 b 636 479 610 424 636 448 b 575 534 636 510 610 534 l 423 534 l 423 848 l 611 848 b 672 904 646 848 672 872 b 611 959 672 936 646 959 z m 202 -149 b 114 -41 149 -149 114 -107 b 222 69 114 26 156 69 l 291 69 l 291 -41 b 202 -149 291 -107 256 -149 z "},"":{"ha":813,"x_min":0,"x_max":0,"o":"m 476 42 b 537 -19 476 7 503 -19 l 547 -19 b 608 42 582 -19 608 7 l 608 424 l 760 424 b 821 479 795 424 821 448 b 760 534 821 510 795 534 l 608 534 l 608 1088 l 796 1088 b 857 1143 831 1088 857 1112 b 796 1198 857 1176 831 1198 l 226 1198 b -14 978 81 1198 -14 1112 b 207 760 -14 845 72 760 b 427 978 341 760 427 845 b 366 1039 427 1013 401 1039 l 356 1039 b 295 978 322 1039 295 1013 b 207 870 295 912 261 870 b 118 978 153 870 118 912 b 226 1088 118 1045 160 1088 l 476 1088 l 476 42 z "},"":{"ha":535,"x_min":0,"x_max":0,"o":"m 490 473 b 428 534 490 508 463 534 l 266 534 b 204 479 231 534 204 510 b 266 424 204 447 231 424 l 358 424 l 358 -41 b 269 -149 358 -107 323 -149 b 180 -41 215 -149 180 -107 l 180 760 b 269 868 180 826 215 868 b 358 760 323 868 358 826 l 358 693 b 419 632 358 658 384 632 l 428 632 b 490 693 463 632 490 658 l 490 760 b 269 978 490 893 403 978 b 49 760 135 978 49 893 l 49 -41 b 269 -259 49 -174 135 -259 b 490 -41 403 -259 490 -174 z "},"":{"ha":785,"x_min":0,"x_max":0,"o":"m 599 42 b 660 -19 599 7 625 -19 l 670 -19 b 731 42 704 -19 731 7 l 731 917 b 670 978 731 951 704 978 l 660 978 b 599 917 625 978 599 951 l 599 534 l 422 534 l 422 917 b 360 978 422 951 395 978 l 351 978 b 290 917 316 978 290 951 l 290 179 l 220 179 b -19 -42 75 179 -19 92 b 201 -260 -19 -175 67 -260 b 422 -42 335 -260 422 -175 l 422 68 l 489 68 b 538 117 516 68 538 90 l 538 129 b 489 179 538 157 516 179 l 422 179 l 422 424 l 599 424 l 599 42 z m 201 -150 b 112 -42 147 -150 112 -108 b 220 68 112 25 154 68 l 290 68 l 290 -42 b 201 -150 290 -108 255 -150 z "},"":{"ha":540,"x_min":0,"x_max":0,"o":"m 220 179 b -19 -42 75 179 -19 92 b 201 -260 -19 -175 67 -260 b 422 -42 335 -260 422 -175 l 422 68 l 489 68 b 538 117 516 68 538 90 l 538 129 b 489 179 538 157 516 179 l 422 179 l 422 917 b 360 978 422 951 395 978 l 351 978 b 290 917 316 978 290 951 l 290 179 l 220 179 z m 112 -42 b 220 68 112 25 154 68 l 290 68 l 290 -42 b 201 -150 290 -108 255 -150 b 112 -42 147 -150 112 -108 z "},"":{"ha":497,"x_min":0,"x_max":0,"o":"m 383 978 l 373 978 b 312 917 338 978 312 951 l 312 -41 b 223 -149 312 -107 277 -149 b 135 -41 169 -149 135 -107 l 135 266 b 73 327 135 301 108 327 l 64 327 b 3 266 29 327 3 301 l 3 -41 b 223 -259 3 -174 89 -259 b 444 -41 357 -259 444 -174 l 444 917 b 383 978 444 951 417 978 z "},"":{"ha":761,"x_min":0,"x_max":0,"o":"m 599 -198 b 660 -259 599 -232 625 -259 l 670 -259 b 731 -198 704 -259 731 -232 l 731 364 b 553 579 731 483 662 563 l 680 892 b 636 978 700 939 682 978 l 622 978 b 553 925 592 978 568 962 l 422 584 l 422 917 b 360 978 422 951 395 978 l 351 978 b 290 917 316 978 290 951 l 290 179 l 220 179 b -19 -42 75 179 -19 92 b 201 -260 -19 -175 67 -260 b 422 -42 335 -260 422 -175 l 422 68 l 489 68 b 538 117 516 68 538 90 l 538 129 b 489 179 538 157 516 179 l 422 179 l 422 472 l 510 472 b 599 364 564 472 599 430 z m 201 -150 b 112 -42 147 -150 112 -108 b 220 68 112 25 154 68 l 290 68 l 290 -42 b 201 -150 290 -108 255 -150 z "},"":{"ha":238,"x_min":0,"x_max":0,"o":"m 123 978 l 114 978 b 53 917 79 978 53 951 l 53 -49 b 114 -110 53 -84 79 -110 l 185 -110 b 602 -259 374 -110 412 -259 b 781 -98 712 -259 781 -200 b 720 -37 781 -64 755 -37 l 711 -37 b 650 -98 676 -37 650 -64 b 590 -149 650 -131 628 -149 b 185 0 488 -149 419 0 l 185 917 b 123 978 185 951 158 978 z "},"":{"ha":881,"x_min":0,"x_max":0,"o":"m 486 485 b 553 424 499 453 519 424 l 563 424 b 630 485 598 424 617 453 l 695 639 l 695 42 b 756 -19 695 7 721 -19 l 765 -19 b 827 42 800 -19 827 7 l 827 917 b 765 978 827 951 800 978 l 750 978 b 680 917 715 978 695 951 l 558 627 l 436 917 b 366 978 422 951 401 978 l 351 978 b 290 917 316 978 290 951 l 290 179 l 220 179 b -19 -42 75 179 -19 92 b 201 -260 -19 -175 67 -260 b 422 -42 335 -260 422 -175 l 422 68 l 489 68 b 538 117 516 68 538 90 l 538 129 b 489 179 538 157 516 179 l 422 179 l 422 639 l 486 485 z m 201 -150 b 112 -42 147 -150 112 -108 b 220 68 112 25 154 68 l 290 68 l 290 -42 b 201 -150 290 -108 255 -150 z "},"":{"ha":785,"x_min":0,"x_max":0,"o":"m 599 42 b 660 -19 599 7 625 -19 l 670 -19 b 731 42 704 -19 731 7 l 731 917 b 670 978 731 951 704 978 l 660 978 b 599 917 625 978 599 951 l 599 726 l 442 929 b 360 978 416 962 394 978 l 351 978 b 290 917 316 978 290 951 l 290 179 l 220 179 b -19 -42 75 179 -19 92 b 201 -260 -19 -175 67 -260 b 422 -42 335 -260 422 -175 l 422 68 l 489 68 b 538 117 516 68 538 90 l 538 129 b 489 179 538 157 516 179 l 422 179 l 422 751 l 599 526 l 599 42 z m 201 -150 b 112 -42 147 -150 112 -108 b 220 68 112 25 154 68 l 290 68 l 290 -42 b 201 -150 290 -108 255 -150 z "},"":{"ha":539,"x_min":0,"x_max":0,"o":"m 49 760 l 49 -41 b 269 -259 49 -174 135 -259 b 490 -41 403 -259 490 -174 l 490 760 b 269 978 490 893 403 978 b 49 760 135 978 49 893 z m 269 -149 b 180 -41 215 -149 180 -107 l 180 760 b 269 868 180 826 215 868 b 358 760 323 868 358 826 l 358 -41 b 269 -149 358 -107 323 -149 z "},"":{"ha":544,"x_min":0,"x_max":0,"o":"m 119 42 b 180 -19 119 7 145 -19 l 190 -19 b 251 42 224 -19 251 7 l 251 779 l 320 779 b 560 999 465 779 560 865 b 340 1217 560 1132 474 1217 b 119 999 205 1217 119 1132 l 119 889 l 52 889 b 3 840 24 889 3 868 l 3 828 b 52 779 3 800 24 779 l 119 779 l 119 42 z m 251 889 l 251 999 b 339 1107 251 1065 286 1107 b 428 999 393 1107 428 1065 b 320 889 428 932 386 889 z "},"":{"ha":532,"x_min":0,"x_max":0,"o":"m 265 978 b 44 760 131 978 44 893 l 44 199 b 265 -19 44 66 131 -19 b 665 -259 394 -19 452 -259 b 845 -98 775 -259 845 -200 b 784 -37 845 -64 819 -37 l 774 -37 b 713 -98 739 -37 713 -64 b 653 -149 713 -131 692 -149 b 417 32 568 -149 506 -40 b 485 199 460 70 485 127 l 485 760 b 265 978 485 893 399 978 z m 176 199 l 176 760 b 265 868 176 826 211 868 b 354 760 319 868 354 826 l 354 199 b 265 91 354 133 319 91 b 176 199 211 91 176 133 z "},"":{"ha":610,"x_min":0,"x_max":0,"o":"m 339 1217 b 119 999 205 1217 119 1132 l 119 889 l 52 889 b 3 840 24 889 3 868 l 3 828 b 52 779 3 800 24 779 l 119 779 l 119 42 b 180 -19 119 7 145 -19 l 190 -19 b 251 42 224 -19 251 7 l 251 779 l 339 779 b 428 671 393 779 428 737 l 428 42 b 489 -19 428 7 455 -19 l 499 -19 b 560 42 534 -19 560 7 l 560 671 b 484 829 560 747 532 798 b 560 999 532 869 560 926 b 339 1217 560 1132 474 1217 z m 251 889 l 251 999 b 339 1107 251 1065 286 1107 b 428 999 393 1107 428 1065 b 320 889 428 932 386 889 z "},"":{"ha":532,"x_min":0,"x_max":0,"o":"m 240 978 b 19 760 106 978 19 893 b 263 180 19 552 173 359 l 259 180 b 19 -41 114 180 19 93 b 240 -259 19 -174 106 -259 b 460 -41 374 -259 460 -174 b 447 70 460 -4 456 34 l 480 70 b 529 119 507 70 529 91 l 529 131 b 480 180 529 158 507 180 l 410 180 b 151 760 323 388 151 581 b 240 868 151 826 186 868 b 329 760 294 868 329 826 l 329 693 b 390 632 329 658 355 632 l 399 632 b 460 693 434 632 460 658 l 460 760 b 240 978 460 893 374 978 z m 240 -149 b 151 -41 186 -149 151 -107 b 259 69 151 26 193 69 l 309 69 b 329 -41 321 32 329 -5 b 240 -149 329 -107 294 -149 z "},"":{"ha":722,"x_min":0,"x_max":0,"o":"m 536 42 b 597 -19 536 7 562 -19 l 607 -19 b 668 42 642 -19 668 7 l 668 1088 l 796 1088 b 857 1143 831 1088 857 1112 b 796 1198 857 1176 831 1198 l 226 1198 b -14 978 81 1198 -14 1112 b 207 760 -14 845 72 760 b 427 978 341 760 427 845 b 366 1039 427 1013 401 1039 l 356 1039 b 295 978 322 1039 295 1013 b 207 870 295 912 261 870 b 118 978 153 870 118 912 b 226 1088 118 1045 160 1088 l 536 1088 l 536 42 z "},"":{"ha":783,"x_min":0,"x_max":0,"o":"m 733 917 b 672 978 733 951 707 978 l 663 978 b 602 917 628 978 602 951 l 602 199 b 513 91 602 133 567 91 b 424 199 459 91 424 133 l 424 779 l 491 779 b 541 828 519 779 541 800 l 541 840 b 491 889 541 868 519 889 l 424 889 l 424 999 b 204 1217 424 1132 338 1217 b -17 999 70 1217 -17 1132 b 223 779 -17 865 78 779 l 292 779 l 292 199 b 513 -19 292 66 379 -19 b 733 199 647 -19 733 66 l 733 917 z m 223 889 b 115 999 157 889 115 932 b 204 1107 115 1065 150 1107 b 292 999 258 1107 292 1065 l 292 889 z "},"":{"ha":850,"x_min":0,"x_max":0,"o":"m 495 42 b 561 -19 502 7 526 -19 l 594 -19 b 660 42 629 -19 653 7 l 842 917 b 784 978 850 951 822 978 l 774 978 b 708 917 739 978 715 951 l 578 290 l 476 779 l 490 779 b 539 828 518 779 539 800 l 539 840 b 490 889 539 868 518 889 l 453 889 l 430 999 b 202 1217 403 1130 337 1217 b -18 1011 68 1217 -18 1136 b 234 779 -18 870 80 779 l 341 779 l 495 42 z m 234 889 b 114 1011 160 889 114 937 b 202 1107 114 1070 149 1107 b 296 999 256 1107 283 1064 l 319 889 l 234 889 z "},"":{"ha":943,"x_min":0,"x_max":0,"o":"m 440 889 l 430 999 b 202 1217 419 1132 337 1217 b -18 1011 68 1217 -18 1136 b 234 779 -18 870 80 779 l 316 779 l 377 42 b 438 -19 380 7 404 -19 l 454 -19 b 524 42 489 -19 516 7 l 610 431 l 696 42 b 766 -19 703 7 731 -19 l 781 -19 b 842 42 816 -19 840 7 l 914 917 b 853 978 917 951 888 978 l 844 978 b 782 917 809 978 785 951 l 742 428 l 682 701 b 615 762 675 733 649 762 l 605 762 b 538 701 570 762 545 733 l 477 428 l 448 779 l 490 779 b 539 828 518 779 539 800 l 539 840 b 490 889 539 868 518 889 l 440 889 z m 234 889 b 114 1011 160 889 114 937 b 202 1107 114 1070 149 1107 b 298 999 256 1107 292 1065 l 308 889 l 234 889 z "},"":{"ha":856,"x_min":0,"x_max":0,"o":"m 447 999 b 202 1217 395 1122 337 1217 b -18 1011 68 1217 -18 1136 b 234 779 -18 870 80 779 l 310 779 b 359 828 338 779 359 800 l 359 840 b 310 889 359 868 338 889 l 234 889 b 114 1011 160 889 114 937 b 202 1107 114 1070 149 1107 b 308 999 256 1107 283 1060 l 508 524 l 323 54 b 373 -19 310 19 326 -19 l 382 -19 b 458 42 422 -19 444 7 l 580 352 l 709 42 b 785 -19 724 7 745 -19 l 794 -19 b 844 54 841 -19 858 19 l 659 494 l 820 905 b 770 978 833 939 817 978 l 761 978 b 685 917 721 978 699 951 l 587 665 z "},"":{"ha":853,"x_min":0,"x_max":0,"o":"m 534 42 b 595 -19 534 7 561 -19 l 605 -19 b 666 42 640 -19 666 7 l 666 424 l 856 917 b 803 978 869 951 838 978 l 793 978 b 721 917 749 978 734 951 l 600 602 l 447 999 b 202 1217 399 1124 337 1217 b -18 1011 68 1217 -18 1136 b 234 779 -18 870 80 779 l 313 779 b 362 828 340 779 362 800 l 362 840 b 313 889 362 868 340 889 l 234 889 b 114 1011 160 889 114 937 b 202 1107 114 1070 149 1107 b 313 999 256 1107 289 1060 l 534 424 l 534 42 z "},"":{"ha":692,"x_min":0,"x_max":0,"o":"m 693 886 b 644 959 706 920 690 959 l 241 959 b 1 738 96 959 1 872 b 222 520 1 605 88 520 b 442 738 356 520 442 605 b 381 799 442 773 416 799 l 372 799 b 311 738 337 799 311 773 b 222 630 311 672 276 630 b 133 738 168 630 133 672 b 241 848 133 805 175 848 l 541 848 l 221 -37 b 270 -110 208 -72 223 -110 l 360 -110 b 777 -259 549 -110 587 -259 b 956 -98 887 -259 956 -200 b 895 -37 956 -64 930 -37 l 886 -37 b 825 -98 851 -37 825 -64 b 765 -149 825 -131 803 -149 b 373 0 665 -149 597 -6 l 693 886 z "},"":{"ha":1031,"x_min":0,"x_max":0,"o":"m 49 42 b 110 -19 49 7 75 -19 l 119 -19 b 180 42 154 -19 180 7 l 180 424 l 358 424 l 358 247 b 691 -19 358 49 557 -19 b 1000 230 825 -19 1000 72 b 691 760 1000 491 691 556 b 780 868 691 826 726 868 b 868 760 834 868 868 826 l 868 693 b 929 632 868 658 895 632 l 939 632 b 1000 693 974 632 1000 658 l 1000 760 b 780 978 1000 893 914 978 b 559 760 645 978 559 893 b 868 230 559 489 868 425 b 691 91 868 115 745 91 b 490 247 637 91 490 101 l 490 760 b 269 978 490 893 403 978 b 49 760 135 978 49 893 z m 180 534 l 180 760 b 269 868 180 826 215 868 b 358 760 323 868 358 826 l 358 534 z "},"":{"ha":960,"x_min":0,"x_max":0,"o":"m 113 0 l 371 0 b 432 55 406 0 432 24 b 371 110 432 87 406 110 l 183 110 l 183 848 l 371 848 b 432 904 406 848 432 872 b 371 959 432 936 406 959 l 113 959 b 51 898 78 959 51 932 l 51 61 b 113 0 51 26 78 0 z m 248 479 b 309 424 248 448 274 424 l 476 424 l 476 42 b 537 -19 476 7 502 -19 l 546 -19 b 607 42 581 -19 607 7 l 607 424 l 696 424 b 785 316 750 424 785 382 l 785 42 b 846 -19 785 7 811 -19 l 855 -19 b 917 42 890 -19 917 7 l 917 316 b 834 479 917 395 887 448 b 917 642 887 510 917 563 l 917 741 b 696 959 917 874 830 959 l 537 959 b 476 898 502 959 476 932 l 476 534 l 309 534 b 248 479 274 534 248 510 z m 607 534 l 607 848 l 696 848 b 785 741 750 848 785 806 l 785 642 b 696 534 785 576 750 534 z "},"":{"ha":960,"x_min":0,"x_max":0,"o":"m 51 42 b 113 -19 51 7 78 -19 l 122 -19 b 183 42 157 -19 183 7 l 183 848 l 371 848 b 432 904 406 848 432 872 b 371 959 432 936 406 959 l 113 959 b 51 898 78 959 51 932 z m 309 534 b 248 479 274 534 248 510 b 309 424 248 448 274 424 l 476 424 l 476 42 b 537 -19 476 7 502 -19 l 546 -19 b 607 42 581 -19 607 7 l 607 424 l 696 424 b 785 316 750 424 785 382 l 785 42 b 846 -19 785 7 811 -19 l 855 -19 b 917 42 890 -19 917 7 l 917 316 b 834 479 917 395 887 448 b 917 642 887 510 917 563 l 917 741 b 696 959 917 874 830 959 l 537 959 b 476 898 502 959 476 932 l 476 534 z m 607 534 l 607 848 l 696 848 b 785 741 750 848 785 806 l 785 642 b 696 534 785 576 750 534 z "},"":{"ha":769,"x_min":0,"x_max":0,"o":"m 51 61 b 113 0 51 26 78 0 l 466 0 b 527 55 501 0 527 23 b 466 110 527 86 501 110 l 183 110 l 183 917 b 122 978 183 951 157 978 l 113 978 b 51 917 78 978 51 951 z m 649 -19 l 659 -19 b 720 42 694 -19 720 7 l 720 760 b 500 978 720 893 634 978 b 279 760 365 978 279 893 l 279 282 b 340 220 279 247 305 220 l 350 220 b 411 282 385 220 411 247 l 411 424 l 588 424 l 588 42 b 649 -19 588 7 615 -19 z m 411 534 l 411 760 b 500 868 411 826 446 868 b 588 760 553 868 588 826 l 588 534 z "},"":{"ha":683,"x_min":0,"x_max":0,"o":"m 51 61 b 113 0 51 26 78 0 l 599 0 b 660 55 634 0 660 23 b 599 110 660 86 634 110 l 183 110 l 183 917 b 122 978 183 951 157 978 l 113 978 b 51 917 78 978 51 951 z m 340 220 l 599 220 b 660 276 634 220 660 244 b 599 331 660 308 634 331 l 411 331 l 411 424 l 563 424 b 624 479 598 424 624 448 b 563 534 624 510 598 534 l 411 534 l 411 848 l 599 848 b 660 904 634 848 660 872 b 599 959 660 936 634 959 l 340 959 b 279 898 305 959 279 932 l 279 282 b 340 220 279 247 305 220 z "},"":{"ha":774,"x_min":0,"x_max":0,"o":"m 122 978 l 113 978 b 51 917 78 978 51 951 l 51 61 b 113 0 51 26 78 0 l 466 0 b 527 55 501 0 527 23 b 466 110 527 86 501 110 l 183 110 l 183 917 b 122 978 183 951 157 978 z m 279 282 b 340 220 279 247 305 220 l 350 220 b 411 282 385 220 411 247 l 411 424 l 588 424 l 588 42 b 649 -19 588 7 615 -19 l 659 -19 b 720 42 694 -19 720 7 l 720 917 b 659 978 720 951 694 978 l 649 978 b 588 917 615 978 588 951 l 588 534 l 411 534 l 411 917 b 350 978 411 951 385 978 l 340 978 b 279 917 305 978 279 951 z "},"":{"ha":546,"x_min":0,"x_max":0,"o":"m 51 61 b 113 0 51 26 78 0 l 466 0 b 527 55 501 0 527 23 b 466 110 527 86 501 110 l 183 110 l 183 917 b 122 978 183 951 157 978 l 113 978 b 51 917 78 978 51 951 z m 401 220 l 411 220 b 472 282 446 220 472 247 l 472 917 b 411 978 472 951 446 978 l 401 978 b 340 917 367 978 340 951 l 340 282 b 401 220 340 247 367 220 z "},"":{"ha":747,"x_min":0,"x_max":0,"o":"m 51 61 b 113 0 51 26 78 0 l 466 0 b 527 55 501 0 527 23 b 466 110 527 86 501 110 l 183 110 l 183 917 b 122 978 183 951 157 978 l 113 978 b 51 917 78 978 51 951 z m 279 282 b 340 220 279 247 305 220 l 350 220 b 411 282 385 220 411 247 l 410 472 l 498 472 b 587 364 552 472 587 430 l 587 42 b 648 -19 587 7 613 -19 l 658 -19 b 719 42 692 -19 719 7 l 719 364 b 541 579 719 483 651 563 l 669 892 b 624 978 688 939 670 978 l 610 978 b 541 925 580 978 556 962 l 410 584 l 410 917 b 349 978 410 951 383 978 l 339 978 b 278 917 304 978 278 951 l 279 282 z "},"":{"ha":606,"x_min":0,"x_max":0,"o":"m 51 61 b 113 0 51 26 78 0 l 545 0 b 606 55 580 0 606 23 b 545 110 606 86 580 110 l 183 110 l 183 917 b 122 978 183 951 157 978 l 113 978 b 51 917 78 978 51 951 z m 350 978 l 340 978 b 279 917 305 978 279 951 l 279 282 b 340 220 279 247 305 220 l 545 220 b 606 276 580 220 606 243 b 545 331 606 307 580 331 l 411 331 l 411 917 b 350 978 411 951 385 978 z "},"":{"ha":869,"x_min":0,"x_max":0,"o":"m 51 61 b 113 0 51 26 78 0 l 466 0 b 527 55 501 0 527 23 b 466 110 527 86 501 110 l 183 110 l 183 917 b 122 978 183 951 157 978 l 113 978 b 51 917 78 978 51 951 z m 279 282 b 340 220 279 247 305 220 l 350 220 b 411 282 385 220 411 247 l 411 639 l 476 485 b 543 424 489 453 508 424 l 552 424 b 619 485 587 424 606 453 l 684 639 l 684 42 b 745 -19 684 7 710 -19 l 755 -19 b 816 42 790 -19 816 7 l 816 917 b 755 978 816 951 790 978 l 739 978 b 670 917 704 978 684 951 l 547 627 l 425 917 b 356 978 411 951 391 978 l 340 978 b 279 917 305 978 279 951 z "},"":{"ha":807,"x_min":0,"x_max":0,"o":"m 47 959 b -14 904 12 959 -14 936 b 47 848 -14 872 12 848 l 175 848 l 175 42 b 237 -19 175 7 202 -19 l 246 -19 b 307 42 281 -19 307 7 l 307 848 l 723 848 b 784 904 758 848 784 872 b 723 959 784 936 758 959 z m 403 61 b 464 0 403 26 429 0 l 723 0 b 784 55 758 0 784 24 b 723 110 784 87 758 110 l 535 110 l 535 379 l 687 379 b 748 434 722 379 748 403 b 687 489 748 465 722 489 l 535 489 l 535 628 l 723 628 b 784 683 758 628 784 652 b 723 738 784 715 758 738 l 464 738 b 403 677 429 738 403 712 z "},"":{"ha":897,"x_min":0,"x_max":0,"o":"m 175 42 b 237 -19 175 7 202 -19 l 246 -19 b 307 42 281 -19 307 7 l 307 848 l 474 848 b 535 904 509 848 535 872 b 474 959 535 936 509 959 l 47 959 b -14 904 12 959 -14 936 b 47 848 -14 872 12 848 l 175 848 z m 403 42 b 464 -19 403 7 429 -19 l 474 -19 b 535 42 509 -19 535 7 l 535 424 l 712 424 l 712 42 b 773 -19 712 7 739 -19 l 783 -19 b 844 42 818 -19 844 7 l 844 917 b 783 978 844 951 818 978 l 773 978 b 712 917 739 978 712 951 l 712 534 l 535 534 l 535 677 b 474 738 535 712 509 738 l 464 738 b 403 677 429 738 403 712 z "},"":{"ha":583,"x_min":0,"x_max":0,"o":"m 175 42 b 237 -19 175 7 202 -19 l 246 -19 b 307 42 281 -19 307 7 l 307 848 l 474 848 b 535 904 509 848 535 872 b 474 959 535 936 509 959 l 47 959 b -14 904 12 959 -14 936 b 47 848 -14 872 12 848 l 175 848 z m 403 42 b 464 -19 403 7 429 -19 l 474 -19 b 535 42 509 -19 535 7 l 535 677 b 474 738 535 712 509 738 l 464 738 b 403 677 429 738 403 712 z "},"":{"ha":775,"x_min":0,"x_max":0,"o":"m 175 42 b 237 -19 175 7 202 -19 l 246 -19 b 307 42 281 -19 307 7 l 307 848 l 467 848 l 467 42 b 528 -19 467 7 493 -19 l 537 -19 b 598 42 572 -19 598 7 l 598 848 l 727 848 b 788 904 761 848 788 872 b 727 959 788 936 761 959 l 47 959 b -14 904 12 959 -14 936 b 47 848 -14 872 12 848 l 175 848 z "},"":{"ha":949,"x_min":0,"x_max":0,"o":"m 110 978 b 49 917 75 978 49 951 l 49 199 b 269 -19 49 66 135 -19 b 490 199 403 -19 490 66 l 490 639 l 554 485 b 621 424 567 453 587 424 l 631 424 b 698 485 666 424 685 453 l 763 639 l 763 42 b 824 -19 763 7 789 -19 l 834 -19 b 895 42 868 -19 895 7 l 895 917 b 834 978 895 951 868 978 l 818 978 b 748 917 783 978 763 951 l 626 627 l 504 917 b 434 978 490 951 469 978 l 419 978 b 358 917 384 978 358 951 l 358 199 b 269 91 358 133 323 91 b 180 199 215 91 180 133 l 180 917 b 119 978 180 951 154 978 z "},"":{"ha":853,"x_min":0,"x_max":0,"o":"m 667 42 b 728 -19 667 7 693 -19 l 738 -19 b 799 42 772 -19 799 7 l 799 917 b 738 978 799 951 772 978 l 728 978 b 667 917 693 978 667 951 l 667 726 l 510 929 b 428 978 484 962 462 978 l 419 978 b 358 917 384 978 358 951 l 358 199 b 269 91 358 133 323 91 b 180 199 215 91 180 133 l 180 917 b 119 978 180 951 154 978 l 110 978 b 49 917 75 978 49 951 l 49 199 b 269 -19 49 66 135 -19 b 490 199 403 -19 490 66 l 490 751 l 667 526 l 667 42 z "}}}
